<svg width="627" height="1280" viewBox="0 0 627 1280" fill="none" xmlns="http://www.w3.org/2000/svg">
<g id="Fiscalias_de_Distrito_FGJ">
<rect width="627" height="1280" fill="white"/>
<path id="FD1-NuevoLaredo" d="M32.2413 45.5832L24.2898 32.7724C23.9138 32.1667 24.2743 31.3733 24.9779 31.2582L50.7435 27.042C50.9117 27.0144 51.0729 26.9421 51.2064 26.8361C65.0781 15.8224 71.5602 10.0804 75.7089 3.00534C75.8912 2.69447 76.2228 2.5 76.5832 2.5H82.1848C82.3899 2.5 82.5902 2.56311 82.7582 2.68077L97.2418 12.8192C97.4098 12.9369 97.61 13 97.8152 13H104.099C104.356 13 104.604 13.0992 104.79 13.277L126.691 34.2046C126.888 34.3933 127 34.6545 127 34.9276V79C127 79.5523 126.552 80 126 80H125.981C125.677 80 125.39 80.1381 125.2 80.3753L123.719 82.2261C123.577 82.4034 123.5 82.6237 123.5 82.8508V83.6748C123.5 83.8862 123.567 84.0921 123.691 84.263L130.38 93.4594C130.854 94.1112 130.401 95.0272 129.596 95.0472L72.326 96.4671C71.6616 96.4836 71.1665 95.8592 71.3276 95.2145C74.5001 82.5144 74.4816 74.7457 71.1884 61.2634C71.0795 60.8174 70.6778 60.5 70.2187 60.5H58.9505C58.664 60.5 58.3913 60.3771 58.2015 60.1626L47.2583 47.792C47.0922 47.6042 46.8616 47.4857 46.6122 47.4599L32.988 46.0505C32.6802 46.0186 32.4045 45.8461 32.2413 45.5832Z" fill="#22495A" stroke="#22495A"/>
<g id="FD2-Reynosa">
<path id="RioBravo" d="M459.557 377.5H420.09C419.726 377.5 419.39 377.698 419.216 378.018C416.124 383.714 414.782 387.841 413.023 395.893C413.008 395.963 413 396.033 413 396.105V460.32C413 460.454 413.028 460.566 413.081 460.69C421.366 480.271 421.648 491.38 416.746 510.546C416.612 511.073 416.918 511.619 417.441 511.768L466.97 525.849C467.3 525.943 467.655 525.861 467.91 525.633L476.667 517.798C476.879 517.608 477 517.337 477 517.053V509.989C477 509.68 476.858 509.389 476.614 509.2L454.886 492.3C454.642 492.111 454.5 491.82 454.5 491.511V487.259C454.5 487.089 454.457 486.923 454.376 486.774C453.512 485.181 452 482.024 452 480.5V474V463V448.245C452 448.084 452.039 447.925 452.113 447.783L457.887 436.717C457.961 436.575 458 436.416 458 436.255V406.954C458 406.665 458.124 406.391 458.341 406.201L461.631 403.322C461.864 403.119 461.989 402.82 461.971 402.511L460.555 378.441C460.524 377.913 460.087 377.5 459.557 377.5Z" fill="#13678B" stroke="#13678B"/>
<path id="Reynosa" d="M326.111 370.296C327.526 367.693 342.073 341 343.5 341C344.923 341 362.985 353.143 364.846 354.396C364.955 354.47 365.066 354.513 365.196 354.539C366.098 354.713 367.758 355 368.5 355H370.838C370.945 355 371.052 355.017 371.154 355.051L373.858 355.953C373.952 355.984 374.041 356.029 374.122 356.087L399.802 374.359C399.932 374.452 400.082 374.512 400.24 374.534L413.141 376.377C413.634 376.448 414 376.87 414 377.367V378.167C414 378.383 413.93 378.594 413.8 378.767L412.629 380.327C412.544 380.441 412.484 380.57 412.453 380.709C411.769 383.774 410.391 389.609 410 390C409.6 390.4 409.167 393.167 409 394.5V396L409.5 401.5V421.5V440V460.846C409.5 460.948 409.516 461.05 409.546 461.147L412.5 470.5L415.949 478.876C415.983 478.958 416.006 479.045 416.017 479.133L417 487V493.917C417 493.972 416.995 494.027 416.986 494.082L416.013 499.923C416.004 499.974 415.992 500.025 415.975 500.074L412.865 509.406C412.672 509.983 412.013 510.256 411.469 509.984L409.572 509.036C409.524 509.012 409.474 508.992 409.423 508.976L401.968 506.646C401.673 506.554 401.352 506.603 401.098 506.78L385.521 517.637C385.203 517.858 384.786 517.876 384.45 517.682L372.232 510.634C372.08 510.546 371.908 510.5 371.732 510.5H330.93C330.406 510.5 329.971 510.095 329.932 509.573L321.038 387.525C321.014 387.196 321.154 386.877 321.411 386.671L325.625 383.3C325.862 383.11 326 382.823 326 382.519V370.754C326 370.587 326.031 370.443 326.111 370.296Z" fill="#13678B" stroke="#13678B"/>
<path id="DiazOrdaz" d="M296.012 340.923L297.87 328.848C297.945 328.36 298.364 328 298.858 328H299.167C299.383 328 299.594 328.07 299.767 328.2L301.41 329.432C301.47 329.477 301.533 329.515 301.601 329.545C304.635 330.892 310.604 333.5 311 333.5C311.394 333.5 319.567 337.374 323.798 339.403C323.933 339.468 324.078 339.5 324.228 339.5H338C338.552 339.5 339 339.948 339 340.5V340.724C339 340.905 338.951 341.082 338.859 341.237L322.141 369.263C322.049 369.418 322 369.595 322 369.776V380.434C322 380.785 321.816 381.111 321.514 381.291L319.5 382.5L317.267 383.84C317.093 383.944 316.892 383.993 316.689 383.98L293.5 382.5C292.948 382.5 292.5 382.052 292.5 381.5V352.155C292.5 352.052 292.516 351.95 292.547 351.852L295.976 341.074C295.992 341.025 296.004 340.974 296.012 340.923Z" fill="#13678B" stroke="#13678B"/>
<path id="Camargo" d="M243.936 308.33L242.632 304.852C242.552 304.638 242.604 304.396 242.766 304.234C242.911 304.089 243.122 304.03 243.321 304.08L244.894 304.473C244.964 304.491 245.033 304.516 245.098 304.549L247 305.5L248.902 306.451C248.967 306.484 249.036 306.509 249.106 306.527L250.856 306.964C250.951 306.988 251.043 307.026 251.128 307.077L253.422 308.453C253.474 308.484 253.529 308.511 253.585 308.532L257.343 309.941C257.447 309.98 257.557 310.002 257.667 310.005L275.686 310.492C275.891 310.497 276.088 310.565 276.253 310.686L294.859 324.396C294.952 324.465 295.033 324.549 295.097 324.646L295.77 325.655C295.917 325.876 295.97 326.145 295.921 326.406C295.746 327.336 295.5 328.812 295.5 329.5C295.5 330.5 295 331 295 331.5C295 331.875 294.415 333.157 294.067 333.865C294.023 333.955 293.992 334.05 293.975 334.148L293.52 336.881C293.507 336.96 293.484 337.037 293.453 337.111C292.94 338.314 292 340.612 292 341C292 341.4 291.667 342.5 291.5 343L290.5 346.5C290.167 347.333 289.4 349.2 289 350C288.5 351 288.5 352.5 288.5 353.5C288.5 354.27 288.191 356.03 288.019 356.903C288.006 356.968 288 357.032 288 357.098V362C288 362.5 287.5 367.5 288 368C288.4 368.4 288.167 377.167 288 381.5V382.264C288 382.419 287.964 382.572 287.894 382.711L287.776 382.947C287.607 383.286 287.261 383.5 286.882 383.5H275H273.914C273.649 383.5 273.395 383.605 273.207 383.793L272.5 384.5L264 395L262.65 397.25C262.552 397.413 262.41 397.545 262.24 397.63L261.5 398L259.831 398.835C259.617 398.941 259.373 398.968 259.141 398.91L255.775 398.069C255.595 398.024 255.431 397.93 255.302 397.797L235.66 377.664C235.555 377.556 235.475 377.426 235.427 377.282L235.051 376.154C235.017 376.052 235 375.945 235 375.838V375.236C235 375.081 235.036 374.928 235.106 374.789L235.453 374.093C235.484 374.031 235.509 373.966 235.526 373.899L243.935 341.747C243.978 341.585 243.979 341.415 243.938 341.252L243.549 339.696C243.517 339.567 243.459 339.445 243.379 339.338L242.054 337.572C242.018 337.524 241.987 337.473 241.96 337.419L241.5 336.5L240.606 334.711C240.536 334.572 240.5 334.419 240.5 334.264V332.123C240.5 332.041 240.51 331.96 240.53 331.881L241.5 328L242.5 324L243.5 319.5L243.986 316.582C243.995 316.527 244 316.472 244 316.417V313V308.681C244 308.561 243.978 308.442 243.936 308.33Z" fill="#13678B" stroke="#13678B"/>
<path id="Guerrero" d="M95.7947 144.08L74.6834 100.898C74.3637 100.244 74.8277 99.4782 75.5555 99.4591L130.368 98.0166C130.754 98.0065 131.111 98.2194 131.286 98.5636L147.392 130.287C147.463 130.427 147.5 130.582 147.5 130.739V162.137C147.5 162.372 147.582 162.599 147.732 162.778L185.366 207.839C185.454 207.945 185.52 208.068 185.558 208.201L200.144 258.279C200.325 258.901 199.874 259.528 199.227 259.561C182.406 260.422 169.113 263.193 146.707 267.754C146.087 267.881 145.5 267.408 145.5 266.776V261.77C145.5 260.901 144.143 259.396 143.367 259.003C137.424 255.993 121.062 242.711 109.5 238C104.588 235.998 95.5 238 96 236.5C96.4629 235.111 107.638 206.728 109.295 202.52C109.427 202.186 109.362 201.827 109.138 201.548L101.653 192.192C101.553 192.066 101.421 191.965 101.274 191.9C94.3765 188.862 90.3918 187.137 83.8658 186.532C83.6308 186.511 83.4085 186.408 83.2416 186.242L79.5503 182.55C79.5168 182.517 79.4858 182.481 79.4574 182.443L77.0621 179.25C76.7459 178.828 76.8112 178.233 77.2114 177.89L83.3293 172.646C83.4417 172.55 83.5313 172.43 83.5917 172.295L95.8094 144.927C95.9302 144.656 95.9248 144.346 95.7947 144.08Z" fill="#13678B" stroke="#13678B"/>
<path id="Mier" d="M201.215 262.163L147.064 273.383C146.715 273.455 146.431 273.708 146.318 274.046L140.591 291.227C140.531 291.406 140.523 291.597 140.568 291.779L148.315 323.736C148.423 324.184 148.825 324.5 149.287 324.5H163.268C163.421 324.5 163.571 324.535 163.708 324.602L189.732 337.368C189.907 337.454 190.103 337.487 190.296 337.463L201.565 336.054C201.842 336.02 202.092 335.871 202.255 335.643L206.814 329.261C206.935 329.091 207 328.888 207 328.68V309.837C207 309.618 207.072 309.406 207.204 309.232L216.296 297.268C216.428 297.094 216.5 296.882 216.5 296.663V280.721C216.5 280.29 216.225 279.908 215.816 279.772L209.415 277.638C209.15 277.55 208.935 277.355 208.82 277.101L202.33 262.73C202.137 262.303 201.674 262.068 201.215 262.163Z" fill="#13678B" stroke="#13678B"/>
<path id="MiguelAleman" d="M194.5 345.41V341.82C194.5 341.343 194.836 340.933 195.304 340.839L196.903 340.519C196.967 340.507 197.033 340.5 197.099 340.5H198.86C198.953 340.5 199.045 340.487 199.135 340.462L202.365 339.538C202.455 339.513 202.547 339.5 202.64 339.5H204.167C204.383 339.5 204.594 339.43 204.767 339.3L206.5 338L207.918 337.055C207.972 337.018 208.023 336.977 208.07 336.93L209.5 335.5L210.716 334.284C210.898 334.102 211.003 333.856 211.009 333.599L211.494 311.791C211.498 311.601 211.556 311.416 211.661 311.258L212.5 310L213.5 308L215 305.5L216.5 303.5L218.403 301.121C218.467 301.041 218.544 300.971 218.629 300.914L219.845 300.104C219.947 300.035 220.062 299.986 220.182 299.959L224.393 299.024C224.464 299.008 224.537 299 224.61 299H228.36C228.453 299 228.545 299.013 228.635 299.038L231.834 299.953C231.944 299.984 232.048 300.034 232.14 300.1L235.395 302.425C235.465 302.475 235.528 302.533 235.582 302.599L237.865 305.338C237.954 305.445 238.02 305.569 238.058 305.703L238.962 308.865C238.987 308.955 239 309.047 239 309.14V312.5V317.877C239 317.959 238.99 318.04 238.97 318.119L237.53 323.881C237.51 323.96 237.5 324.041 237.5 324.123V325.838C237.5 325.945 237.483 326.052 237.449 326.154L236.551 328.846C236.517 328.948 236.5 329.055 236.5 329.162V333.5V335.519C236.5 335.823 236.638 336.11 236.875 336.3L238.625 337.7C238.862 337.89 239 338.177 239 338.481V339.386C239 339.462 238.991 339.537 238.974 339.611L231.124 373.464C231.047 373.798 230.804 374.069 230.481 374.182L202.001 384.15C201.458 384.34 200.867 384.034 200.709 383.481L200 381L199 374L198 368.5L197 362L196 356.5L195.5 351L194.516 345.589C194.505 345.53 194.5 345.47 194.5 345.41Z" fill="#13678B" stroke="#13678B"/>
</g>
<g id="FD3-Matamoros">
<path id="Cruillas" d="M334 663.5L361.269 653.761C361.699 653.607 362.179 653.765 362.434 654.143L388.934 693.402C388.978 693.467 389.014 693.537 389.041 693.611L390.436 697.33C390.478 697.442 390.5 697.561 390.5 697.681V700.819C390.5 700.939 390.478 701.058 390.436 701.17L389 705L387.724 707.553C387.583 707.834 387.583 708.166 387.724 708.447L388.86 710.719C388.951 710.902 389.096 711.052 389.275 711.15L394.5 714L398.729 716.349C398.905 716.447 399.108 716.49 399.309 716.471L409.085 715.54C409.351 715.514 409.615 715.596 409.82 715.767L412.5 718L420 724L427.338 729.381C427.445 729.459 427.535 729.559 427.604 729.673L428.737 731.562C428.902 731.837 428.925 732.175 428.799 732.47L427.576 735.323C427.526 735.44 427.454 735.546 427.364 735.636L426 737L422.559 740.441C422.52 740.48 422.478 740.515 422.434 740.548C421.244 741.402 418.893 743.215 418.5 744C418.104 744.792 413.431 749.24 411.073 751.432C411.023 751.478 410.98 751.528 410.941 751.583L408.625 754.826C408.542 754.941 408.437 755.037 408.315 755.108L402.734 758.364C402.581 758.453 402.407 758.5 402.23 758.5H397.107C397.036 758.5 396.965 758.492 396.895 758.477L385.5 756L368.5 754L351 751.5L335 749L326.762 747.546C326.59 747.516 326.43 747.441 326.296 747.33L323.5 745L319.179 741.639C319.061 741.548 318.965 741.431 318.899 741.297L317.606 738.711C317.536 738.572 317.5 738.419 317.5 738.264V735.5V732.277C317.5 732.096 317.451 731.918 317.357 731.762L316.043 729.572C316.015 729.524 315.982 729.479 315.945 729.436L313 726L308.016 718.751C307.724 718.326 307.803 717.747 308.2 717.416L310.405 715.58C310.468 715.527 310.525 715.466 310.573 715.4L314.5 710L317.357 705.238C317.451 705.082 317.5 704.904 317.5 704.723V701V697.833C317.5 697.617 317.43 697.406 317.3 697.233L314.5 693.5L307.769 686.288C307.596 686.103 307.5 685.859 307.5 685.606V684.781C307.5 684.597 307.551 684.417 307.647 684.26L312.778 675.863C312.92 675.631 313.15 675.467 313.415 675.408L317.38 674.527C317.46 674.509 317.537 674.482 317.61 674.445L321.322 672.589C321.439 672.53 321.544 672.449 321.63 672.35L327.793 665.239C327.928 665.083 328.107 664.973 328.306 664.923L334 663.5Z" fill="#1D7A92" stroke="#1D7A92"/>
<path id="Burgos" d="M224.4 613.1L236.293 601.207C236.683 600.817 237.317 600.817 237.707 601.207L247.707 611.207C247.895 611.395 248.149 611.5 248.414 611.5H257.64C258.115 611.5 258.5 611.115 258.5 610.64C258.5 610.547 258.515 610.455 258.544 610.368L258.958 609.127C258.986 609.043 259.025 608.963 259.074 608.889L259.703 607.945C259.889 607.667 260.201 607.5 260.535 607.5H277.723C277.904 607.5 278.082 607.549 278.238 607.643L280.434 608.96C280.478 608.987 280.52 609.017 280.559 609.049L283.5 611.5L286.371 613.414C286.456 613.471 286.533 613.541 286.597 613.621L288.4 615.876C288.466 615.958 288.519 616.05 288.556 616.149L290 620L290.734 621.836C290.893 622.233 291.287 622.485 291.714 622.463L309.551 621.549C310.083 621.521 310.5 621.082 310.5 620.55V620C310.5 619.448 310.948 619 311.5 619H317.515C317.821 619 318.111 619.141 318.3 619.381L336.225 642.151C336.4 642.373 336.661 642.511 336.943 642.53L357.929 643.961C358.283 643.985 358.597 644.195 358.756 644.512L360.776 648.553C361.109 649.218 360.625 650 359.882 650H358.657C358.553 650 358.449 650.016 358.35 650.048L327.73 659.926C327.579 659.975 327.442 660.058 327.329 660.171L316.293 671.207C316.105 671.395 315.851 671.5 315.586 671.5H311C310.685 671.5 310.389 671.648 310.2 671.9L300.386 684.985C300.151 685.299 299.754 685.446 299.372 685.362L259.394 676.586C259.141 676.531 258.92 676.38 258.776 676.164L243.483 653.225C243.206 652.809 242.665 652.662 242.216 652.88L227.831 659.84C227.617 659.943 227.374 659.967 227.144 659.908L214.408 656.606C214.147 656.538 213.925 656.368 213.791 656.134L200.333 632.583C200.132 632.23 200.163 631.791 200.413 631.471L215.6 612.013C215.843 611.701 216.247 611.562 216.631 611.658L223.451 613.363C223.791 613.448 224.152 613.348 224.4 613.1Z" fill="#1D7A92" stroke="#1D7A92"/>
<path id="ValleHermoso" d="M463.211 409.229L465.949 405.709C466.262 405.305 466.829 405.203 467.264 405.472L500.025 425.707C500.32 425.889 500.5 426.211 500.5 426.558V468.167C500.5 468.383 500.43 468.594 500.3 468.767L499.072 470.404C499.024 470.468 498.984 470.537 498.953 470.61L497.581 473.811C497.528 473.936 497.5 474.07 497.5 474.205V494.723C497.5 494.904 497.451 495.082 497.357 495.238L496.063 497.394C496.021 497.465 495.971 497.529 495.913 497.587L493.07 500.43C493.023 500.477 492.972 500.518 492.918 500.555L488.5 503.5L481.633 508.078C481.259 508.327 480.765 508.297 480.424 508.003L459.247 489.714C459.087 489.575 458.974 489.388 458.927 489.182L457.5 483L455.524 474.107C455.508 474.036 455.5 473.963 455.5 473.89V450.333C455.5 450.117 455.57 449.906 455.7 449.733L462.8 440.267C462.93 440.094 463 439.883 463 439.667V409.843C463 409.621 463.074 409.405 463.211 409.229Z" fill="#1D7A92" stroke="#1D7A92"/>
<path id="Matamoros" d="M468.954 400.096L466.5 378.5V377.688C466.5 377.067 467.059 376.597 467.671 376.703L518.244 385.456C518.412 385.485 518.57 385.556 518.702 385.664L562.725 421.277C562.903 421.421 563.125 421.5 563.354 421.5H580.587C581.104 421.5 581.536 421.106 581.583 420.591L582.917 405.909C582.964 405.394 583.396 405 583.913 405H591.135C591.371 405 591.599 404.917 591.779 404.765L600.721 397.235C600.901 397.083 601.129 397 601.365 397H624.964C625.53 397 625.983 397.47 625.963 398.035L624.5 439.5L620.027 471.309C620.009 471.435 619.967 471.557 619.904 471.667L589 525.5L555.194 603.89C554.888 604.601 553.924 604.709 553.468 604.083L521.114 559.656C521.039 559.553 520.944 559.465 520.836 559.397L472.811 529.321C472.196 528.936 472.184 528.044 472.787 527.642L481.555 521.797C481.833 521.611 482 521.299 482 520.965V513.479C482 513.176 482.137 512.89 482.373 512.7L502.127 496.8C502.363 496.61 502.5 496.324 502.5 496.021V475.618C502.5 475.239 502.714 474.893 503.053 474.724L504.929 473.786C505.277 473.611 505.493 473.251 505.481 472.862L504.016 423.542C504.006 423.204 503.826 422.894 503.537 422.718L474.5 405L469.314 400.757C469.113 400.592 468.984 400.355 468.954 400.096Z" fill="#1D7A92" stroke="#1D7A92"/>
<path id="Mendez" d="M270.742 602.784L344.837 536.645C344.944 536.55 345.071 536.478 345.209 536.436L351.2 534.592C351.395 534.532 351.568 534.414 351.693 534.253L360.288 523.272C360.425 523.096 360.5 522.879 360.5 522.655V516.5C360.5 515.948 360.946 515.5 361.499 515.5H369.5C369.9 515.5 371.333 516.167 372 516.5L384.982 522.751C385.303 522.905 385.681 522.877 385.976 522.678L402.246 511.672C402.412 511.56 402.607 511.5 402.806 511.5H403.842C403.947 511.5 404.051 511.516 404.15 511.548L436.5 522C437.833 522.333 440.7 523 441.5 523C442.3 523 441.833 524 441.5 524.5L418.727 552.223C418.58 552.402 418.5 552.627 418.5 552.858V558.472C418.5 558.802 418.337 559.111 418.064 559.298L398.192 572.869C398.066 572.955 397.921 573.011 397.77 573.033L391.466 573.933C391.171 573.976 390.91 574.147 390.754 574.401L376.191 598.189C376.067 598.39 375.877 598.541 375.654 598.615L373.316 599.395C373.111 599.463 372.933 599.596 372.81 599.774L359.67 618.755C359.559 618.915 359.497 619.104 359.492 619.298L359.025 637.526C359.011 638.068 358.568 638.5 358.025 638.5H340.461C340.168 638.5 339.891 638.372 339.701 638.149L319.799 614.851C319.609 614.628 319.332 614.5 319.039 614.5H308C307.448 614.5 307 614.948 307 615.5V617.571C307 618.095 306.596 618.53 306.074 618.569L294.432 619.431C293.907 619.47 293.442 619.096 293.368 618.575L292.563 612.943C292.523 612.661 292.365 612.41 292.128 612.252L283.5 606.5L281.274 604.719C281.097 604.577 280.876 604.5 280.649 604.5H277.5L271.174 604.048C270.794 604.021 270.5 603.705 270.5 603.325C270.5 603.118 270.588 602.921 270.742 602.784Z" fill="#1D7A92" stroke="#1D7A92"/>
<path id="SanFernando" d="M423.254 552.715L447.643 525.4C447.866 525.15 448.199 525.028 448.53 525.076L451.426 525.489C451.475 525.496 451.524 525.507 451.572 525.522L456.5 527L464.5 530L470 533L514 561.5L519.347 564.903C519.448 564.967 519.537 565.049 519.609 565.145L550 605.5L552.314 608.739C552.435 608.909 552.5 609.112 552.5 609.32V612.348C552.5 612.449 552.485 612.549 552.455 612.645L535.5 667L521.05 739.75C521.017 739.914 520.944 740.067 520.837 740.196L518.649 742.821C518.551 742.939 518.427 743.032 518.287 743.095L478.091 760.96C478.03 760.986 477.973 761.019 477.919 761.058L452.078 779.381C451.416 779.85 450.5 779.377 450.5 778.565V773.414C450.5 773.149 450.605 772.895 450.793 772.707L453.207 770.293C453.395 770.105 453.5 769.851 453.5 769.586V763.118C453.5 762.739 453.286 762.393 452.947 762.224L452.675 762.088C452.56 762.03 452.434 761.995 452.305 761.985L433.332 760.525C433.116 760.509 432.912 760.423 432.75 760.281L421.732 750.641C421.325 750.284 421.275 749.668 421.62 749.251L432.77 735.777C432.919 735.598 433 735.373 433 735.14V728.414C433 728.149 432.895 727.895 432.707 727.707L432.56 727.56C432.52 727.52 432.477 727.484 432.431 727.451L412.26 713.184C412.091 713.064 411.889 713 411.682 713H398.236C398.081 713 397.928 712.964 397.789 712.894L395 711.5L392.5 710L391.394 709.171C390.983 708.863 391.041 708.23 391.5 708L393.462 706.823C393.791 706.625 393.978 706.257 393.943 705.875L393.021 695.728C393.007 695.578 392.96 695.433 392.882 695.304L364.643 648.238C364.549 648.082 364.5 647.904 364.5 647.723V619.838C364.5 619.619 364.572 619.406 364.705 619.231L379 600.5L392.706 578.472C392.889 578.178 393.21 578 393.556 578H395.253C395.415 578 395.575 577.96 395.719 577.885L422.466 563.781C422.795 563.608 423 563.268 423 562.897V553.381C423 553.136 423.09 552.899 423.254 552.715Z" fill="#1D7A92" stroke="#1D7A92"/>
</g>
<g id="FD6-ZonaSur">
<path id="Altamira" d="M403.479 1171.58L402.507 1151.64C402.502 1151.55 402.485 1151.46 402.457 1151.37L402.113 1150.34C402.058 1150.17 402.182 1150 402.358 1150C402.447 1150 402.529 1150.05 402.576 1150.12L415.583 1170.56C415.993 1171.2 416.946 1171.17 417.308 1170.49L427.394 1151.7C427.464 1151.57 427.562 1151.45 427.681 1151.37L438.93 1143.05C438.977 1143.02 439.026 1142.99 439.077 1142.96L441.509 1141.75C441.815 1141.59 442.178 1141.61 442.471 1141.78L444.262 1142.86C444.418 1142.95 444.596 1143 444.777 1143H446.586C446.851 1143 447.105 1143.11 447.293 1143.29L448.317 1144.32C448.437 1144.44 448.525 1144.59 448.571 1144.75L449.5 1148L459.398 1175.22C459.465 1175.4 459.583 1175.56 459.738 1175.68L461.37 1176.9C461.456 1176.97 461.552 1177.02 461.654 1177.05L465.846 1178.45C465.948 1178.48 466.055 1178.5 466.162 1178.5H470.382C470.761 1178.5 471.107 1178.29 471.276 1177.95L473.242 1174.02C473.4 1173.7 473.723 1173.5 474.076 1173.5C474.345 1173.5 474.602 1173.62 474.779 1173.82L487.701 1188.66C487.891 1188.87 488.166 1189 488.455 1189H498.59C499.106 1189 499.537 1189.4 499.587 1189.91C501.149 1205.92 503.481 1217.8 507.297 1238.88C507.404 1239.47 506.97 1240.03 506.37 1240.06L490.445 1240.95C489.915 1240.98 489.5 1241.42 489.5 1241.95V1242.5C489.5 1243.05 489.052 1243.5 488.5 1243.5H460.744C460.584 1243.5 460.426 1243.46 460.284 1243.39L420.249 1222.63C420.086 1222.54 419.903 1222.51 419.72 1222.52L406.569 1223.43C405.991 1223.47 405.5 1223.01 405.5 1222.43V1213.32C405.5 1213.11 405.434 1212.91 405.312 1212.74L396.688 1200.76C396.566 1200.59 396.5 1200.39 396.5 1200.18V1179.89C396.5 1179.64 396.596 1179.4 396.769 1179.21L403.212 1172.31C403.396 1172.11 403.493 1171.85 403.479 1171.58Z" fill="#DAFDB9" stroke="#DAFDB9"/>
<path id="Madero" d="M506.206 1268.03L492.967 1247.03C492.547 1246.37 493.025 1245.5 493.813 1245.5H507.882C508.261 1245.5 508.607 1245.71 508.776 1246.05L516.678 1261.86C516.87 1262.24 516.795 1262.71 516.49 1263.01L515.115 1264.39C515.039 1264.46 514.951 1264.52 514.855 1264.57L511 1266.5L508.252 1268.33C508.088 1268.44 507.895 1268.5 507.697 1268.5H507.052C506.708 1268.5 506.389 1268.32 506.206 1268.03Z" fill="#DAFDB9" stroke="#DAFDB9"/>
<path id="Tampico" d="M488.757 1276.7L466 1249C465.624 1248.62 465.882 1247.98 466.414 1247.97L487.46 1247.51C487.797 1247.5 488.115 1247.67 488.306 1247.95L505.197 1272.56C505.386 1272.83 505.426 1273.19 505.301 1273.5L503.751 1277.37C503.6 1277.75 503.232 1278 502.823 1278H495.576C495.526 1278 495.475 1278 495.424 1277.99L489.378 1277.06C489.135 1277.02 488.914 1276.89 488.757 1276.7Z" fill="#DAFDB9" stroke="#DAFDB9"/>
</g>
<g id="FD4-Victoria">
<path id="Jaumave" d="M107.508 961.766L108.967 917.492C108.985 916.943 109.443 916.511 109.992 916.525L128.516 916.988C128.822 916.996 129.114 916.863 129.31 916.628L140.799 902.841C141.175 902.389 141.859 902.359 142.274 902.774L146.83 907.33C146.942 907.442 147.078 907.525 147.229 907.574L164.943 913.319C165.287 913.431 165.664 913.348 165.93 913.103L171.388 908.065C171.743 907.738 172.28 907.71 172.666 908L179.165 912.874C179.621 913.215 179.7 913.867 179.339 914.307L175.762 918.679C175.594 918.885 175.515 919.148 175.541 919.412L176.967 933.668C176.988 933.883 177.079 934.086 177.226 934.246L188.26 946.239C188.415 946.408 188.508 946.625 188.522 946.854L191.457 994.299C191.483 994.719 191.77 995.079 192.175 995.197L202.78 998.29C203.207 998.414 203.5 998.806 203.5 999.25V1027.85C203.5 1028.25 203.733 1028.6 204.094 1028.76L207.051 1030.08C207.569 1030.31 207.792 1030.92 207.542 1031.43L194.71 1057.57C194.577 1057.84 194.329 1058.04 194.036 1058.11L171.093 1063.36C170.729 1063.45 170.442 1063.73 170.349 1064.09C168.975 1069.42 166.5 1079.23 166.5 1080C166.5 1080.78 154.066 1074.61 147.439 1071.22C147.16 1071.08 146.968 1070.82 146.914 1070.51L145.569 1062.89C145.525 1062.64 145.387 1062.42 145.184 1062.26L143.885 1061.29C143.642 1061.11 143.495 1060.82 143.485 1060.52L141.528 996.92C141.512 996.4 141.101 995.979 140.581 995.952L123.106 995.032C122.734 995.012 122.403 994.787 122.249 994.447L107.597 962.213C107.533 962.073 107.503 961.92 107.508 961.766Z" fill="#45C4AF" stroke="#45C4AF"/>
<path id="SotoLaMarina" d="M520 754C520 755.017 517.846 755.866 516.276 756.304C515.825 756.43 515.499 756.833 515.498 757.301L515.001 1009.25C515.001 1009.7 515.29 1010.09 515.714 1010.21L519.287 1011.29C519.71 1011.41 520 1011.8 520 1012.24V1022.2C520 1022.39 519.942 1022.59 519.832 1022.75L519.391 1023.41C519.156 1023.77 518.726 1023.93 518.316 1023.83L513.241 1022.56C513.083 1022.52 512.936 1022.44 512.815 1022.33L498.368 1009.33C498.136 1009.12 497.819 1009.03 497.515 1009.1C494.99 1009.69 492.483 1011.16 487.5 1014.5C483.149 1016.9 480.547 1016.73 475.77 1013.2C475.596 1013.07 475.383 1013 475.166 1013H461.811C461.608 1013 461.411 1012.94 461.244 1012.82L445.756 1002.18C445.589 1002.06 445.392 1002 445.189 1002H432.691C432.565 1002 432.437 1002.02 432.32 1002.07C423.105 1005.77 419.957 1010.71 415.825 1020.71C415.637 1021.16 415.147 1021.42 414.669 1021.31L392.41 1016.1C392.148 1016.03 391.921 1015.87 391.782 1015.64L376.123 989.703C376.042 989.57 375.994 989.419 375.982 989.263L375.022 976.788C375.008 976.6 374.94 976.42 374.827 976.268L359.198 955.266C359.069 955.093 359 954.884 359 954.669V945.618C359 945.239 358.786 944.893 358.447 944.724L356.553 943.776C356.214 943.607 356 943.261 356 942.882V928.523C356 928.196 356.161 927.889 356.429 927.7C358.636 926.146 360.108 924.904 362.603 922.4C362.849 922.153 362.948 921.793 362.863 921.454C361.421 915.703 360.349 911.631 358.208 903.765C358.086 903.317 358.289 902.844 358.697 902.623L417.476 870.784C417.799 870.609 418 870.271 418 869.904V855.861C418 855.628 418.082 855.402 418.23 855.222L437.235 832.32C437.405 832.115 437.649 831.986 437.914 831.962L447.591 831.083C448.106 831.036 448.5 830.604 448.5 830.087V812.812C448.5 812.609 448.562 812.41 448.678 812.243L457.137 800.024C457.358 799.704 457.374 799.285 457.178 798.949C454.182 793.808 452.574 790.695 450.747 785.685C450.599 785.278 450.738 784.816 451.082 784.552C474.793 766.333 489.481 757.104 518.625 745.543C519.28 745.283 520 745.762 520 746.466V754Z" fill="#45C4AF" stroke="#45C4AF"/>
<path id="SanNicolas" d="M274.46 732.858L260.91 684.463C260.716 683.771 261.293 683.106 262.005 683.202L301.225 688.463C301.405 688.487 301.575 688.56 301.717 688.673L308.936 694.449C308.979 694.483 309.018 694.52 309.055 694.561L313.243 699.215C313.409 699.398 313.5 699.637 313.5 699.884V704.586C313.5 704.851 313.395 705.105 313.207 705.293L307 711.5L302.021 717.384C301.717 717.743 301.705 718.266 301.992 718.64L311.397 730.866C311.465 730.955 311.518 731.054 311.553 731.16L313.449 736.846C313.483 736.948 313.5 737.055 313.5 737.162V741.558C313.5 741.839 313.619 742.108 313.827 742.298L317.629 745.754C318.113 746.194 317.802 747 317.147 747C317.05 747 316.954 747.02 316.865 747.058L313.914 748.323C313.663 748.43 313.5 748.677 313.5 748.95C313.5 749.607 312.664 749.886 312.27 749.36L309.3 745.4C309.111 745.148 308.815 745 308.5 745H305.5H299.5H293.114C293.038 745 292.963 744.991 292.889 744.974L286.611 743.526C286.537 743.509 286.462 743.5 286.386 743.5H282.481C282.177 743.5 281.89 743.362 281.7 743.125L278 738.5L274.579 733.125C274.527 733.042 274.487 732.952 274.46 732.858Z" fill="#45C4AF" stroke="#45C4AF"/>
<path id="SanCarlos" d="M200.5 680.63V661.5V661C200.5 660.448 200.948 660 201.5 660H202.5H212.807C212.935 660 213.061 660.024 213.179 660.072L225.106 664.843C225.358 664.943 225.64 664.937 225.887 664.827L239.228 658.846C239.674 658.646 240.197 658.795 240.468 659.201C244.536 665.296 252.143 676.604 253.898 678.871C253.968 678.961 254.02 679.057 254.057 679.165C261.726 701.365 265.31 713.94 270.448 736.275C270.482 736.421 270.549 736.561 270.643 736.678L274.5 741.5L277.788 745.728C277.925 745.904 278.118 746.029 278.335 746.084L282 747L288.865 748.962C288.955 748.987 289.047 749 289.14 749H298H307.086C307.351 749 307.605 749.105 307.793 749.293L310.707 752.207C310.895 752.395 311 752.649 311 752.914V754.197C311 754.395 310.942 754.588 310.832 754.752L309.046 757.431C309.015 757.477 308.981 757.52 308.943 757.56L301.5 765.5L297.115 769.885C297.039 769.961 296.975 770.049 296.927 770.145L296.174 771.652C296.062 771.876 296.038 772.133 296.105 772.374C296.456 773.641 297 775.777 297 776.5C297 777.134 297.419 778.439 297.759 779.368C297.899 779.752 298.268 780 298.677 780H299.434C299.785 780 300.111 780.184 300.291 780.486L301.343 782.238C301.445 782.409 301.495 782.606 301.484 782.805L300.011 811.292C300.004 811.429 300.025 811.566 300.073 811.695L301.397 815.226C301.464 815.405 301.581 815.561 301.734 815.675L305.363 818.397C305.454 818.465 305.532 818.548 305.595 818.643L306.489 819.983C306.921 820.632 306.456 821.5 305.677 821.5C305.56 821.5 305.444 821.479 305.334 821.438L301.608 820.04C301.536 820.014 301.468 819.979 301.404 819.936L297 817L291.746 813.656C291.585 813.554 291.399 813.5 291.209 813.5H263H261.118C260.739 813.5 260.393 813.714 260.224 814.053L259.5 815.5L258.547 816.929C258.516 816.976 258.488 817.026 258.465 817.078L256.552 821.382C256.518 821.46 256.473 821.534 256.419 821.601L254.637 823.828C254.547 823.941 254.433 824.034 254.304 824.098L250.5 826L247.189 827.419C247.064 827.472 246.93 827.5 246.795 827.5H243.181C243.061 827.5 242.942 827.478 242.83 827.436L239.17 826.064C239.058 826.022 238.954 825.959 238.863 825.88L235 822.5L232.278 820.232C232.098 820.082 231.872 820 231.638 820H220.5C219.948 820 219.5 819.552 219.5 819V817.659C219.5 817.259 219.738 816.898 220.106 816.74L222.811 815.581C222.936 815.528 223.07 815.5 223.205 815.5H226.649C226.876 815.5 227.097 815.423 227.274 815.281L229.251 813.699C229.413 813.57 229.531 813.393 229.588 813.193L230.415 810.297C230.47 810.104 230.466 809.898 230.402 809.707L229.556 807.167C229.519 807.057 229.463 806.953 229.391 806.862L206.634 778.169C206.546 778.058 206.482 777.929 206.448 777.79L205.094 772.375C205.033 772.134 204.885 771.924 204.678 771.786L202.135 770.09C202.046 770.03 201.966 769.957 201.9 769.872L198.711 765.771C198.574 765.595 198.5 765.379 198.5 765.157V754.766C198.5 754.592 198.545 754.421 198.632 754.269L200.453 751.083C200.484 751.028 200.521 750.976 200.562 750.928L206.259 744.281C206.415 744.1 206.5 743.869 206.5 743.63V688.37C206.5 688.131 206.415 687.9 206.259 687.719L200.741 681.281C200.585 681.1 200.5 680.869 200.5 680.63Z" fill="#45C4AF" stroke="#45C4AF"/>
<path id="Mainero" d="M95 733.5L97.3848 724.438C97.458 724.159 97.6475 723.926 97.9047 723.798L100.5 722.5L104.33 721.064C104.442 721.022 104.561 721 104.681 721H111.829C111.942 721 112.055 720.981 112.162 720.943L120.5 718L124.837 716.554C124.945 716.518 125.046 716.464 125.135 716.395L129.5 713L134 709.5L139.39 705.58C139.463 705.527 139.543 705.484 139.627 705.452L143.297 704.076C143.431 704.026 143.552 703.948 143.653 703.847L146.793 700.707C147.423 700.077 148.5 700.523 148.5 701.414V719.086C148.5 719.351 148.395 719.605 148.207 719.793L145.793 722.207C145.605 722.395 145.5 722.649 145.5 722.914V737.5C145.5 738.052 145.052 738.5 144.5 738.5H132.5H120.803C120.605 738.5 120.412 738.558 120.248 738.668L117.562 740.458C117.521 740.486 117.481 740.517 117.444 740.55L112.085 745.423C112.028 745.474 111.978 745.532 111.935 745.594L107.994 751.287C107.71 751.696 107.169 751.835 106.724 751.612L104.711 750.606C104.572 750.536 104.419 750.5 104.264 750.5H100.862C100.628 750.5 100.402 750.418 100.222 750.268L97.7781 748.232C97.5984 748.082 97.3719 748 97.1379 748H93.3205C93.112 748 92.9088 747.935 92.7392 747.814L89.7021 745.644C89.5694 745.55 89.4619 745.424 89.3889 745.278L88.2693 743.039C88.1036 742.707 88.1334 742.311 88.3573 742.016C89.3077 740.763 90.9483 738.851 92 738.5C93.2 738.1 94.5 735 95 733.5Z" fill="#45C4AF" stroke="#45C4AF"/>
<path id="Villagran" d="M154.435 696.215C167.892 687.381 174.285 682.09 181.871 672.778C182.22 672.35 182.845 672.276 183.276 672.622C188.492 676.811 197.859 684.479 199 686C200.014 687.351 200.623 688.322 200.888 688.792C200.964 688.927 201 689.081 201 689.236V741.677C201 741.887 200.934 742.092 200.811 742.262L194.689 750.738C194.566 750.908 194.5 751.113 194.5 751.323V753V763.5V768C194.5 768.552 194.052 769 193.5 769H193.414C193.149 769 192.895 768.895 192.707 768.707L192.05 768.05C192.017 768.017 191.981 767.986 191.943 767.957L188.267 765.2C188.094 765.07 187.883 765 187.667 765H184.5H179L167.5 766.5L153 768L143 769L131 770.5L120.71 771.48C120.572 771.493 120.432 771.477 120.299 771.433L117.881 770.627C117.637 770.546 117.433 770.373 117.313 770.144L114.385 764.581C113.899 763.658 111.802 758.516 111.706 757.476C111.504 755.288 111.563 752.639 112.5 751C114.474 747.545 116.098 745.459 120.332 743.574C120.442 743.525 120.561 743.497 120.681 743.49L148.104 742.047C148.614 742.02 149.021 741.614 149.05 741.104L149.979 724.381C149.992 724.136 150.096 723.904 150.27 723.73L152.724 721.276C152.901 721.099 153.006 720.861 153.016 720.61L153.979 697.014C153.992 696.691 154.165 696.392 154.435 696.215Z" fill="#45C4AF" stroke="#45C4AF"/>
<path id="Hidalgo" d="M102.155 836.457L119.322 776.125C119.43 775.745 119.758 775.463 120.149 775.408C143.862 772.05 158.074 770.572 184.834 769.01C184.943 769.003 185.053 769.015 185.158 769.043L190.5 770.5L196.416 771.979C196.472 771.993 196.527 772.012 196.579 772.035L200.406 773.736C200.767 773.897 200.998 774.255 201.016 774.649C201.091 776.278 201.453 778.802 202.5 779.5C203.688 780.292 217.06 797.482 223.797 806.236C223.931 806.411 224 806.62 224 806.84V809.92C224 810.279 223.808 810.61 223.496 810.788L220.731 812.368C220.579 812.455 220.408 812.5 220.234 812.5H217.766C217.592 812.5 217.421 812.545 217.269 812.632L214.504 814.212C214.192 814.39 214 814.721 214 815.08V815.5L212.533 840.922C212.513 841.28 212.303 841.599 211.982 841.759L210.5 842.5L205.454 844.335C205.167 844.439 204.944 844.669 204.847 844.958L202.535 851.896C202.512 851.965 202.481 852.032 202.444 852.094L201.217 854.139C201.078 854.37 200.852 854.535 200.591 854.597L190.5 857L180 859L173.691 860.456C173.565 860.485 173.446 860.538 173.34 860.613L165 866.5L159.072 870.946C159.024 870.982 158.973 871.013 158.919 871.04L156.211 872.394C156.072 872.464 155.919 872.5 155.764 872.5H141H136.414C136.149 872.5 135.895 872.395 135.707 872.207L134.706 871.206C134.571 871.071 134.478 870.901 134.437 870.716L133.524 866.607C133.508 866.536 133.5 866.463 133.5 866.39V860.914C133.5 860.649 133.395 860.395 133.207 860.207L132.221 859.221C132.077 859.077 131.893 858.981 131.693 858.944L126.589 858.016C126.53 858.005 126.47 858 126.41 858H119.693C119.565 858 119.439 857.976 119.321 857.928L117.503 857.201C117.189 857.076 116.96 856.8 116.894 856.469L116.056 852.279C116.019 852.096 115.933 851.928 115.806 851.792L102.385 837.413C102.146 837.157 102.059 836.794 102.155 836.457Z" fill="#45C4AF" stroke="#45C4AF"/>
<path id="Jimenez" d="M302.664 771.314L320.654 750.893C320.871 750.647 321.2 750.523 321.526 750.562C350.433 753.954 366.452 756.557 393.227 762.23C393.867 762.365 394.214 763.071 393.922 763.656L392.5 766.5L390.5 771.5L388.046 778.863C388.015 778.954 387.998 779.049 387.995 779.145L387.007 808.282C387.002 808.426 386.967 808.567 386.902 808.695L386.149 810.202C386.052 810.395 385.895 810.552 385.702 810.649L357.145 824.927C357.049 824.975 356.961 825.039 356.885 825.115L355.682 826.318C355.563 826.437 355.475 826.585 355.428 826.747L343.853 866.779C343.673 867.401 342.959 867.691 342.396 867.369L340.062 866.035C340.021 866.012 339.981 865.985 339.944 865.956L335.578 862.561C335.526 862.52 335.47 862.485 335.411 862.456L332.5 861L330.214 859.629C330.074 859.544 329.956 859.426 329.871 859.286L328.57 857.116C328.523 857.039 328.488 856.956 328.464 856.869L326 848L324 841.5L322.551 835.705C322.517 835.57 322.456 835.443 322.37 835.333L319 831L313.5 823.5L305.196 811.776C305.069 811.597 305.004 811.388 305.012 811.168C305.329 802.434 305.924 785.446 305.993 781.156C306 780.755 305.758 780.4 305.396 780.23C302.165 778.713 301.233 776.926 302.442 771.744C302.479 771.586 302.556 771.436 302.664 771.314Z" fill="#45C4AF" stroke="#45C4AF"/>
<path id="Abasolo" d="M359.414 829.296L390.942 813.775C391.284 813.607 391.5 813.259 391.5 812.878V778.151C391.5 778.051 391.516 777.95 391.545 777.854C393.41 771.85 394.83 768.711 397.757 763.898C397.91 763.646 398.169 763.475 398.461 763.431L407.661 762.051C407.881 762.018 408.083 761.913 408.237 761.752L417.306 752.229C417.689 751.827 418.325 751.813 418.724 752.198L431.732 764.742C431.905 764.908 432.132 765.007 432.371 765.021L448.206 765.9C448.988 765.944 449.419 766.83 448.969 767.472L446.681 770.742C446.563 770.91 446.5 771.11 446.5 771.315V787.703C446.5 787.897 446.556 788.087 446.662 788.249L453.598 798.884C453.837 799.25 453.81 799.73 453.532 800.067L444.729 810.723C444.581 810.902 444.5 811.127 444.5 811.36V827C444.5 827.552 444.052 828 443.5 828H435.47C435.172 828 434.89 828.132 434.7 828.361L413.231 854.222C413.082 854.402 413 854.628 413 854.861V866.426C413 866.781 412.811 867.11 412.504 867.289L356.669 899.901C356.557 899.966 356.434 900.009 356.306 900.028L347.762 901.248C346.989 901.359 346.394 900.582 346.701 899.864L356.281 877.511C356.417 877.193 356.379 876.828 356.181 876.544L349.763 867.375C349.596 867.137 349.541 866.838 349.612 866.556L358.887 829.948C358.959 829.664 359.151 829.425 359.414 829.296Z" fill="#45C4AF" stroke="#45C4AF"/>
<path id="Casas" d="M310.068 884.825L316.78 867.566C316.915 867.218 317.233 866.974 317.604 866.936C323.776 866.289 326.989 866.335 332 867C342.877 869.331 346.91 872.164 351.647 878.521C351.865 878.814 351.903 879.206 351.747 879.537L340.671 903.074C340.359 903.737 340.843 904.5 341.576 904.5H352.352C352.746 904.5 353.104 904.731 353.265 905.091L359.196 918.322C359.376 918.724 359.272 919.198 358.938 919.487L352.345 925.201C352.126 925.391 352 925.667 352 925.957V944.586C352 944.851 352.105 945.105 352.293 945.293L355.207 948.207C355.395 948.395 355.5 948.649 355.5 948.914V957.658C355.5 957.88 355.574 958.095 355.71 958.27L370.79 977.73C370.926 977.905 371 978.12 371 978.342V990.223C371 990.404 371.049 990.582 371.143 990.738L387.272 1017.62C387.417 1017.86 387.658 1018.03 387.934 1018.09L413.915 1023.28C414.496 1023.4 414.849 1023.99 414.675 1024.56L413.108 1029.65C413.038 1029.88 412.891 1030.07 412.692 1030.2L399.459 1038.7C399.173 1038.89 399 1039.21 399 1039.55V1047.59C399 1047.85 398.895 1048.11 398.707 1048.29L398.07 1048.93C398.023 1048.98 397.982 1049.03 397.945 1049.08L397.209 1050.19C397.074 1050.39 397.018 1050.63 397.05 1050.87L397.894 1057.21C397.956 1057.67 397.688 1058.11 397.249 1058.28L389.154 1061.26C388.761 1061.4 388.5 1061.78 388.5 1062.2V1067.59C388.5 1068.66 387.057 1068.98 386.598 1068.02L377.577 1049.16C377.526 1049.05 377.494 1048.94 377.484 1048.82L376.552 1038.57C376.52 1038.22 376.303 1037.91 375.982 1037.76L359.824 1030.15C359.614 1030.05 359.444 1029.88 359.344 1029.67C354.183 1018.85 351.762 1015.22 348.788 1014.1C348.602 1014.03 348.395 1014.03 348.204 1014.09C338.246 1017 333.718 1019.19 326.654 1023.41C326.553 1023.47 326.462 1023.55 326.388 1023.64L310.515 1043.25C310.048 1043.82 309.137 1043.71 308.828 1043.03L304.091 1032.7C304.031 1032.57 304 1032.43 304 1032.28V1028.47C304 1028.17 304.132 1027.89 304.36 1027.7L306.64 1025.8C306.868 1025.61 307 1025.33 307 1025.03V1011.82C307 1011.61 306.936 1011.41 306.816 1011.24L298.799 999.922C298.611 999.657 298.307 999.5 297.983 999.5H285.936C285.658 999.5 285.392 999.384 285.203 999.18L279.603 993.15C279.259 992.779 279.246 992.209 279.573 991.823L284.333 986.197C284.443 986.068 284.517 985.913 284.551 985.747L285.392 981.541C285.459 981.204 285.349 980.856 285.1 980.62L265.789 962.275C265.604 962.098 265.357 962 265.101 962H245.236C245.081 962 244.928 961.964 244.789 961.894L243.34 961.17C243.121 961.06 242.95 960.874 242.859 960.647L242.149 958.871C242.053 958.633 242.053 958.367 242.149 958.129L242.88 956.3C242.958 956.105 243.096 955.939 243.273 955.827L293.418 924.052C293.472 924.017 293.53 923.988 293.591 923.965L302.109 920.652C302.359 920.555 302.56 920.361 302.665 920.114L309.919 903.189C309.972 903.064 310 902.93 310 902.795V885.188C310 885.064 310.023 884.941 310.068 884.825Z" fill="#45C4AF" stroke="#45C4AF"/>
<path id="Padilla" d="M217 841.482V823C217 822.46 217.459 822.034 217.997 822.074L230.129 822.973C230.369 822.99 230.593 823.093 230.763 823.263L238.283 830.783C238.425 830.925 238.606 831.021 238.803 831.057C244.364 832.064 247.973 830.875 254.5 828C257.511 827.041 259.142 825.012 261.737 819.103C261.898 818.738 262.259 818.5 262.658 818.5H290.826C290.941 818.5 291.056 818.52 291.164 818.559C295.699 820.219 299.518 823 301 823C302.495 823 309.406 826.726 316.924 834.423C316.974 834.474 317.019 834.53 317.057 834.591L319.424 838.378C319.474 838.459 319.512 838.544 319.538 838.636C320.719 842.847 323.104 851.104 323.5 851.5C323.886 851.886 325.232 858.501 325.926 862.112C325.972 862.355 325.895 862.605 325.72 862.78C325.579 862.921 325.388 863 325.19 863H315.736C315.581 863 315.428 863.036 315.289 863.106L314.824 863.338C314.615 863.443 314.449 863.617 314.355 863.832L307.5 879.5L305.572 884.321C305.524 884.439 305.5 884.565 305.5 884.693V886V900.802C305.5 900.933 305.474 901.062 305.425 901.183L298.755 917.381C298.601 917.755 298.236 918 297.83 918H292.721C292.29 918 291.908 917.725 291.772 917.316L291 915L289 910.5L283.078 894.215C283.027 894.074 282.944 893.945 282.836 893.84L264.5 876L246 862.5L217.423 842.299C217.158 842.111 217 841.807 217 841.482Z" fill="#45C4AF" stroke="#45C4AF"/>
<path id="Guemez" d="M134.5 880.532V877.587C134.5 877.002 135 876.542 135.583 876.59L158.098 878.467C158.356 878.488 158.612 878.409 158.813 878.245L171.915 867.57C171.971 867.523 172.019 867.475 172.067 867.419C174.402 864.73 187.96 861.251 205.407 856.173C205.769 856.067 206.044 855.767 206.113 855.396L207.482 848.095C207.494 848.032 207.513 847.968 207.537 847.908C208.857 844.681 210.799 844.657 215.394 846.458C215.464 846.486 215.531 846.521 215.592 846.563L248.5 869C261.1 875.916 267.494 883.025 278.892 895.383C278.963 895.46 279.022 895.548 279.066 895.643L290.623 920.683C290.837 921.148 290.667 921.699 290.227 921.961L263.313 938.015C262.857 938.287 262.268 938.155 261.971 937.715L245.225 912.835C245.081 912.62 244.859 912.47 244.605 912.415L238.355 911.076C238.126 911.027 237.921 910.899 237.776 910.713L203.032 866.182C202.727 865.79 202.18 865.682 201.749 865.928L157.187 891.323C156.6 891.658 156.507 892.468 157.004 892.927L168.235 903.294C168.653 903.679 168.666 904.334 168.264 904.736L163.995 909.005C163.698 909.302 163.246 909.382 162.865 909.204L156 906L151.219 904.088C151.075 904.03 150.946 903.94 150.843 903.824L147.124 899.639C147.042 899.547 146.978 899.441 146.935 899.326L145.564 895.67C145.522 895.558 145.5 895.439 145.5 895.319V889.481C145.5 889.177 145.362 888.89 145.125 888.7L143 887L137.5 883.5L134.86 881.3C134.632 881.11 134.5 880.828 134.5 880.532Z" fill="#45C4AF" stroke="#45C4AF"/>
<path id="Victoria" d="M165.011 891.714L201.247 871.422C201.679 871.18 202.224 871.291 202.527 871.684L233.933 912.413C233.977 912.471 234.028 912.524 234.085 912.57L236.722 914.768C236.902 914.918 237.128 915 237.362 915H239.338C239.445 915 239.552 915.017 239.654 915.051L242.149 915.883C242.376 915.959 242.568 916.113 242.69 916.317L257.357 940.762C257.451 940.918 257.5 941.096 257.5 941.277V941.949C257.5 942.292 257.324 942.611 257.034 942.794L238.891 954.253C238.643 954.41 238.476 954.667 238.435 954.957L237.041 964.71C237.014 964.899 236.934 965.077 236.809 965.222L209.478 996.945C209.193 997.275 208.728 997.383 208.327 997.211L195.564 991.742C195.218 991.593 194.984 991.264 194.96 990.888L192.019 946.284C192.006 946.098 191.943 945.92 191.835 945.768L182.046 932.064C182.015 932.021 181.988 931.977 181.965 931.93L180.606 929.211C180.536 929.072 180.5 928.919 180.5 928.764V920.08C180.5 919.721 180.692 919.39 181.004 919.212L183.653 917.698C183.876 917.571 184.041 917.363 184.115 917.117L185.373 912.923C185.454 912.654 185.418 912.363 185.273 912.121L184.145 910.241C184.05 910.083 183.914 909.955 183.751 909.87L173.67 904.589C173.558 904.53 173.458 904.45 173.375 904.354L164.741 894.281C164.585 894.1 164.5 893.869 164.5 893.63V892.586C164.5 892.224 164.696 891.89 165.011 891.714Z" fill="#45C4AF" stroke="#45C4AF"/>
<path id="Tula" d="M33.5 1064.96V1056.71C33.5 1056.28 33.7686 1055.91 34.1696 1055.77L43.0138 1052.67C43.3189 1052.56 43.6568 1052.61 43.9208 1052.8L51.5449 1058.18C51.8278 1058.38 52.194 1058.42 52.5127 1058.28L71.2368 1050.32C71.6794 1050.14 72.1932 1050.29 72.46 1050.69L75.7615 1055.64C75.9138 1055.87 76.1532 1056.03 76.4237 1056.07L89.7023 1058.36C90.1674 1058.44 90.6253 1058.19 90.8006 1057.75L95.1233 1046.94C95.3305 1046.42 95.9214 1046.18 96.4364 1046.39L119.195 1055.87C119.393 1055.96 119.56 1056.1 119.671 1056.29C125.015 1065.13 130.512 1069.48 141.06 1076.7C141.333 1076.89 141.5 1077.2 141.5 1077.53V1100.63C141.5 1100.87 141.414 1101.1 141.257 1101.28L132.243 1111.72C132.086 1111.9 132 1112.13 132 1112.37V1135.17C132 1135.38 131.93 1135.59 131.8 1135.77L130.7 1137.23C130.57 1137.41 130.5 1137.62 130.5 1137.83V1161.74C130.5 1161.91 130.545 1162.08 130.63 1162.23L138.83 1176.7C138.94 1176.89 138.982 1177.12 138.95 1177.34L137.126 1189.65C137.054 1190.14 136.633 1190.5 136.137 1190.5H132.212C132.072 1190.5 131.934 1190.47 131.806 1190.41L127.789 1188.63C127.601 1188.54 127.443 1188.41 127.337 1188.23L126.102 1186.17C126.035 1186.06 125.991 1185.93 125.968 1185.8C125.401 1182.63 123.112 1183.19 117.994 1185.75C117.686 1185.91 117.321 1185.89 117.026 1185.72L115.178 1184.61C115.061 1184.54 114.959 1184.44 114.879 1184.33L112.5 1181L110.294 1177.47C110.111 1177.18 109.791 1177 109.446 1177H105.5H100.184C100.062 1177 99.9417 1177.02 99.828 1177.07L89.672 1180.93C89.5583 1180.98 89.4376 1181 89.316 1181H82.5876C82.5293 1181 82.4711 1180.99 82.4138 1180.98L74.1088 1179.52C74.0365 1179.51 73.9658 1179.49 73.898 1179.46L68.3997 1177.17C68.1447 1177.06 67.945 1176.85 67.848 1176.59L66.5637 1173.17C66.5216 1173.06 66.5 1172.94 66.5 1172.82V1164.5V1162.62C66.5 1162.24 66.286 1161.89 65.9472 1161.72L64.696 1161.1C64.5669 1161.03 64.4253 1161 64.281 1160.99L33.5 1160H30C29.4477 1160 29 1159.55 29 1159V1142V1133.26C29 1133.09 28.9567 1132.92 28.8742 1132.77L26.5 1128.5L24.6388 1124.31C24.5488 1124.11 24.3942 1123.94 24.1991 1123.84L12.8468 1117.73C12.2117 1117.38 12.1366 1116.5 12.7046 1116.06L22.6163 1108.3C22.8585 1108.11 23 1107.82 23 1107.51V1096.34C23 1096.12 23.0741 1095.9 23.2106 1095.73L26.2894 1091.77C26.4259 1091.6 26.5 1091.38 26.5 1091.16V1079.86C26.5 1079.63 26.418 1079.4 26.2682 1079.22L22.2124 1074.35C21.8319 1073.9 21.9314 1073.21 22.426 1072.88L33.0547 1065.8C33.3329 1065.61 33.5 1065.3 33.5 1064.96Z" fill="#45C4AF" stroke="#45C4AF"/>
<path id="Bustamante" d="M39.1302 978.37L44.5337 972.966C44.8166 972.683 45.2408 972.596 45.6122 972.745L49.8624 974.445C49.9536 974.481 50.039 974.531 50.1157 974.593L52.3824 976.406C52.4604 976.468 52.5285 976.542 52.5847 976.625L60.1378 987.732C60.5439 988.329 61.4299 988.312 61.8127 987.7L65.7062 981.47C65.889 981.178 66.2095 981 66.5542 981H86.5858C86.851 981 87.1054 980.895 87.2929 980.707L87.8549 980.145C87.9506 980.049 88.0648 979.974 88.1906 979.924L90.2552 979.098C90.4157 979.034 90.5567 978.929 90.6647 978.794L92.2891 976.764C92.4259 976.593 92.615 976.471 92.8275 976.418L93.8163 976.171C94.2263 976.068 94.6565 976.235 94.8909 976.586L95.4278 977.392C95.4757 977.464 95.5141 977.541 95.5421 977.623L102.403 997.717C102.466 997.902 102.582 998.064 102.736 998.183L106.915 1001.43C106.971 1001.48 107.023 1001.53 107.069 1001.58L109.268 1004.22C109.418 1004.4 109.5 1004.63 109.5 1004.86V1006.29C109.5 1006.43 109.47 1006.57 109.412 1006.7L91.5 1046.5L88.2886 1054.3C88.118 1054.71 87.6923 1054.96 87.2471 1054.91L79.9309 1054.05C79.656 1054.02 79.4068 1053.87 79.2427 1053.65L73.0299 1045.22C72.7281 1044.81 72.1668 1044.69 71.7259 1044.95L56.2317 1053.87C56.0799 1053.95 55.9078 1054 55.7327 1054H53.355C53.1254 1054 52.9027 1053.92 52.7244 1053.78L45.2756 1047.72C45.0973 1047.58 44.8746 1047.5 44.645 1047.5H44.1676C44.0566 1047.5 43.9465 1047.52 43.8416 1047.55L30.1352 1052.28C29.7511 1052.41 29.4853 1052.77 29.4627 1053.17L29.0261 1061.03C29.0096 1061.33 28.861 1061.6 28.6209 1061.78L20.1781 1068C19.7863 1068.29 19.2435 1068.25 18.8924 1067.92L7.30747 1056.8C7.11104 1056.61 7 1056.35 7 1056.07V1055.74C7 1055.58 7.03614 1055.43 7.10557 1055.29L11.3944 1046.71C11.4639 1046.57 11.5 1046.42 11.5 1046.26V1020.53C11.5 1020.2 11.3371 1019.89 11.0647 1019.7L2.43532 1013.8C2.16289 1013.61 2 1013.3 2 1012.97V1012.54C2 1012.2 2.1671 1011.89 2.4453 1011.7L6.24808 1009.17C6.41234 1009.06 6.60535 1009 6.80278 1009H41.3637C41.4541 1009 41.5442 1008.99 41.6313 1008.96L49.738 1006.71C50.1846 1006.59 50.4874 1006.17 50.4696 1005.71L50.0126 993.827C50.0044 993.614 49.9288 993.41 49.7968 993.244L39.0538 979.698C38.7382 979.3 38.771 978.729 39.1302 978.37Z" fill="#45C4AF" stroke="#45C4AF"/>
<g id="Miquihuana">
<path d="M49.2223 966.998C56.2329 951.162 60.2822 942.015 63.3408 928.226C63.436 927.797 63.7976 927.475 64.2357 927.438L64.4487 927.42C66.4911 927.248 69.8228 926.966 70.4636 926.965C70.9541 926.395 82.5074 919.761 89.7921 916.104C89.9308 916.034 90.0808 916 90.2359 916H102.5C103.052 916 103.5 916.448 103.5 917V962.286C103.5 962.427 103.53 962.566 103.587 962.695L118.166 995.253C118.36 995.688 118.221 996.199 117.834 996.476L111.761 1000.81C111.591 1000.93 111.388 1001 111.18 1001H110.887C110.638 1001 110.398 1000.91 110.214 1000.74L105.327 996.298C105.119 996.108 105 995.839 105 995.558V995.147C105 995.049 104.986 994.953 104.958 994.859L99.0724 975.241C99.0249 975.083 98.9387 974.939 98.8217 974.822L97.1147 973.115C97.0387 973.039 96.951 972.975 96.8549 972.927L95.3954 972.198C95.1435 972.072 94.8497 972.058 94.5878 972.161C90.9676 973.59 88.7003 974.904 84.7777 977.795C84.5984 977.927 84.3791 977.997 84.1564 977.992L64.5041 977.512C64.1871 977.505 63.8851 977.648 63.6904 977.898L61.6096 980.573C61.127 981.194 60.146 981.04 59.8406 980.316C57.5799 974.955 54.7522 972.357 49.2894 968.982C48.846 968.708 48.6796 968.141 48.9127 967.675L49 967.5L49.2223 966.998Z" fill="#45C4AF"/>
<path d="M49 967.5C56.1476 951.354 60.2501 942.16 63.3408 928.226C63.436 927.797 63.7976 927.475 64.2357 927.438C66.6324 927.236 71.2002 926.847 70.5 927C69.5362 927.211 82.0654 919.983 89.7921 916.104C89.9308 916.034 90.0808 916 90.2359 916H102.5C103.052 916 103.5 916.448 103.5 917V962.286C103.5 962.427 103.53 962.566 103.587 962.695L118.166 995.253C118.36 995.688 118.221 996.199 117.834 996.476L111.761 1000.81C111.591 1000.93 111.388 1001 111.18 1001H110.887C110.638 1001 110.398 1000.91 110.214 1000.74L105.327 996.298C105.119 996.108 105 995.839 105 995.558V995.147C105 995.049 104.986 994.953 104.958 994.859L99.0724 975.241C99.0249 975.083 98.9387 974.939 98.8217 974.822L97.1147 973.115C97.0387 973.039 96.951 972.975 96.8549 972.927L95.3954 972.198C95.1435 972.072 94.8497 972.058 94.5878 972.161C90.9676 973.59 88.7003 974.904 84.7777 977.795C84.5984 977.927 84.3791 977.997 84.1564 977.992L64.5041 977.512C64.1871 977.505 63.8851 977.648 63.6904 977.898L61.6096 980.573C61.127 981.194 60.146 981.04 59.8406 980.316C57.5799 974.955 54.7522 972.357 49.2894 968.982C48.846 968.708 48.6796 968.141 48.9127 967.675L49 967.5Z" stroke="#45C4AF"/>
</g>
<path id="Palmillas" d="M120.672 1000H136.503C137.056 1000 137.5 1000.45 137.5 1001V1062.45C137.5 1062.79 137.678 1063.11 137.97 1063.29L141.093 1065.25C141.35 1065.41 141.521 1065.68 141.556 1065.98L142.217 1071.6C142.322 1072.48 141.303 1073.05 140.604 1072.5L130.624 1064.6C130.542 1064.53 130.47 1064.46 130.412 1064.37L122.676 1052.76C122.561 1052.59 122.397 1052.46 122.205 1052.39L98.6385 1043.25C98.2536 1043.1 98 1042.73 98 1042.32V1042.19C98 1042.06 98.0227 1041.94 98.067 1041.83L111.472 1007.07C111.491 1007.02 111.514 1006.98 111.54 1006.93C114.311 1002.16 116.526 1001.44 120.334 1000.06C120.443 1000.02 120.556 1000 120.672 1000Z" fill="#45C4AF" stroke="#45C4AF"/>
</g>
<g id="FD5-ElMante">
<path id="Aldama" d="M424.5 1014.5C426.483 1007.88 430.275 1005.69 444.225 1005.99C444.402 1006 444.582 1006.05 444.732 1006.14C450.526 1009.73 453.115 1012.03 456.7 1016.15C456.89 1016.37 457.167 1016.5 457.458 1016.5H474.086C474.351 1016.5 474.605 1016.61 474.793 1016.79L478.177 1020.18C478.382 1020.38 478.666 1020.49 478.955 1020.47L485.311 1020.01C485.436 1020 485.558 1019.97 485.671 1019.92L496.446 1014.77C496.786 1014.6 497.188 1014.64 497.487 1014.87L509.854 1024.39C509.951 1024.46 510.06 1024.52 510.176 1024.55L519.269 1027.28C519.7 1027.41 519.992 1027.81 519.981 1028.26L517.503 1127.37C517.501 1127.46 517.488 1127.54 517.465 1127.62L501.601 1183.15C501.536 1183.37 501.392 1183.57 501.194 1183.7L500.332 1184.28C500.119 1184.42 499.859 1184.48 499.606 1184.43L488.812 1182.55C488.609 1182.52 488.422 1182.42 488.276 1182.28L476.293 1170.29C476.105 1170.11 475.851 1170 475.586 1170H471.021C470.694 1170 470.389 1170.16 470.201 1170.43L467.535 1174.24C467.233 1174.67 466.651 1174.79 466.201 1174.52L462.311 1172.19C462.11 1172.07 461.958 1171.88 461.881 1171.66L450.734 1139.67C450.594 1139.27 450.215 1139 449.79 1139H439.285C439.099 1139 438.916 1139.05 438.758 1139.15L424.728 1147.86C424.579 1147.95 424.458 1148.08 424.375 1148.23C421.662 1153.31 416.182 1163.32 415 1164.5C413.809 1165.69 404.641 1148.27 400.103 1139.21C400.034 1139.07 400 1138.92 400 1138.76V1116.95C400 1116.67 399.876 1116.39 399.659 1116.2L396.327 1113.29C396.119 1113.1 395.995 1112.84 395.986 1112.57L394.518 1066.07C394.507 1065.72 394.681 1065.38 394.977 1065.19L401.041 1061.3C401.327 1061.11 401.5 1060.79 401.5 1060.45V1053.83C401.5 1053.62 401.57 1053.41 401.7 1053.23L404.3 1049.77C404.43 1049.59 404.5 1049.38 404.5 1049.17V1041.05C404.5 1040.71 404.678 1040.39 404.97 1040.21L416.236 1033.17C416.408 1033.06 416.543 1032.9 416.624 1032.71L424.5 1014.5Z" fill="#9AECA4" stroke="#9AECA4"/>
<path id="Gonzalez" d="M373 1055H374.94C375.288 1055 375.611 1055.18 375.793 1055.48L388.868 1076.79C388.955 1076.93 389.005 1077.09 389.014 1077.25L390.983 1111.71C390.994 1111.9 391.06 1112.08 391.173 1112.24L394.809 1117.24C394.933 1117.41 395 1117.61 395 1117.83V1141.92C395 1142.28 395.192 1142.61 395.504 1142.79L397.984 1144.21C398.302 1144.39 398.495 1144.73 398.488 1145.09L398.006 1168.68C398.002 1168.89 397.934 1169.09 397.812 1169.26L391.215 1178.21C391.076 1178.4 391.008 1178.63 391.022 1178.86L392.479 1202.66C392.493 1202.88 392.58 1203.09 392.727 1203.26L399.777 1211.25C399.922 1211.41 400.009 1211.62 400.025 1211.84L401.928 1237.53C401.968 1238.07 401.57 1238.54 401.03 1238.6L387.654 1239.93C387.257 1239.97 386.874 1239.77 386.681 1239.43L384.786 1236.01C384.609 1235.7 384.275 1235.5 383.912 1235.5H362.5C361.948 1235.5 361.5 1235.05 361.5 1234.5V1222.84C361.5 1222.62 361.427 1222.41 361.293 1222.23L346.707 1203.27C346.573 1203.09 346.5 1202.88 346.5 1202.66V1192.76C346.5 1192.31 346.202 1191.92 345.771 1191.79L314.85 1183.1C314.624 1183.03 314.383 1183.05 314.169 1183.15L294.917 1191.81C294.652 1191.93 294.349 1191.93 294.085 1191.81L281.079 1185.77C280.726 1185.6 280.5 1185.25 280.5 1184.86V1174.91C280.5 1174.65 280.605 1174.39 280.793 1174.21L284.656 1170.34C284.873 1170.13 284.979 1169.82 284.942 1169.52L283.528 1157.74C283.51 1157.58 283.455 1157.43 283.368 1157.3L275.662 1145.74C275.556 1145.58 275.498 1145.4 275.494 1145.21C275.375 1138.99 275.716 1135.07 276.944 1127.83C276.98 1127.62 277.084 1127.42 277.24 1127.27L287.21 1117.78C287.396 1117.6 287.643 1117.5 287.9 1117.5H291.197C291.395 1117.5 291.588 1117.44 291.752 1117.33L294.347 1115.6C294.448 1115.53 294.536 1115.45 294.607 1115.35L296.814 1112.26C296.935 1112.09 297 1111.89 297 1111.68V1108.5V1103.5V1096.5V1091.6C297 1091.53 297.006 1091.47 297.019 1091.4L298.458 1084.21C298.486 1084.07 298.543 1083.94 298.625 1083.83L300.701 1080.92C300.889 1080.66 301.192 1080.5 301.515 1080.5H302.737C302.909 1080.5 303.079 1080.54 303.229 1080.63L314.271 1086.87C314.421 1086.96 314.591 1087 314.763 1087H343.253C343.893 1087 344.368 1086.41 344.23 1085.78L342.675 1078.79C342.573 1078.33 342.807 1077.86 343.236 1077.66L371.416 1064.77C371.772 1064.6 372 1064.25 372 1063.86V1056C372 1055.45 372.448 1055 373 1055Z" fill="#9AECA4" stroke="#9AECA4"/>
<path id="Llera" d="M209.729 1002.25C219.978 990.894 239.547 969.227 242.204 966.32C242.394 966.112 242.66 966.008 242.942 966.021L263.169 966.984C263.384 966.994 263.587 967.071 263.753 967.208C268.157 970.839 276.238 977.835 277.368 980.072C277.498 980.331 277.627 980.608 277.84 980.805C280.88 983.62 279.576 985.02 277.548 987.443C277.516 987.48 277.482 987.516 277.445 987.549L273.336 991.202C273.122 991.391 273 991.663 273 991.949V992.586C273 992.851 273.105 993.105 273.292 993.293C275.65 995.673 279.573 999.878 280.979 1002.21C281.333 1002.8 282.179 1003.27 282.849 1003.12C285.47 1002.53 289.19 1002.44 295.974 1002.5C296.302 1002.5 296.61 1002.66 296.795 1002.93L303.854 1013.29C303.95 1013.43 304.009 1013.59 304.023 1013.76C304.43 1018.74 302.974 1021.13 299.197 1024.81C299.069 1024.93 298.974 1025.09 298.927 1025.27C297.339 1031.13 298.395 1032.62 300 1035.5L308.279 1048.38C308.64 1048.94 309.437 1049 309.875 1048.49L328.908 1026.61C328.969 1026.54 329.041 1026.47 329.12 1026.42C337.048 1021.28 341 1020.05 347.512 1018.61C347.818 1018.54 348.141 1018.62 348.375 1018.83C352.263 1022.31 353.226 1025.61 354.404 1031.52C354.465 1031.82 354.662 1032.08 354.939 1032.22L371.947 1040.72C372.286 1040.89 372.5 1041.24 372.5 1041.62V1051.49C372.5 1051.81 372.347 1052.11 372.088 1052.3L367.412 1055.7C367.153 1055.89 367 1056.19 367 1056.51V1061.38C367 1061.76 366.786 1062.11 366.447 1062.28L338.693 1076.15C338.285 1076.36 338.067 1076.81 338.162 1077.26L339.228 1082.23C339.366 1082.87 338.859 1083.47 338.204 1083.44L318.163 1082.51C318.055 1082.5 317.948 1082.48 317.847 1082.44L300.145 1075.56C300.049 1075.52 299.959 1075.47 299.879 1075.4L284.747 1063.2C284.586 1063.07 284.389 1062.99 284.184 1062.98L269.31 1062.02C269.108 1062.01 268.915 1061.93 268.756 1061.81L255.597 1051.47C255.244 1051.19 254.75 1051.18 254.388 1051.45L240.264 1061.81C240.092 1061.93 239.885 1062 239.673 1062H230.833C230.617 1062 230.406 1062.07 230.233 1062.2L220.969 1069.15C220.679 1069.37 220.295 1069.41 219.964 1069.26L199.95 1060.42C199.431 1060.19 199.207 1059.58 199.456 1059.07L209.5 1038.5L212.242 1031.19C212.395 1030.78 212.265 1030.32 211.919 1030.05L208.416 1027.32C208.156 1027.12 208.012 1026.8 208.032 1026.47L209.479 1002.85C209.492 1002.62 209.577 1002.41 209.729 1002.25Z" fill="#9AECA4" stroke="#9AECA4"/>
<path id="Xicotencatl" d="M242.22 1064.84L253.904 1056.43C254.258 1056.17 254.738 1056.18 255.088 1056.44L266.258 1064.82C266.416 1064.94 266.605 1065.01 266.801 1065.02L283.651 1065.98C283.877 1065.99 284.092 1066.08 284.26 1066.23L297.341 1077.91C297.717 1078.25 297.784 1078.81 297.497 1079.23L293.678 1084.74C293.562 1084.91 293.5 1085.11 293.5 1085.31V1109.7C293.5 1109.9 293.443 1110.09 293.334 1110.25C291.152 1113.48 289.267 1114.1 285.52 1113.58C285.195 1113.53 284.865 1113.64 284.638 1113.88L274.595 1124.4C274.532 1124.47 274.477 1124.54 274.435 1124.62C271.311 1130.55 270.908 1134.75 270.565 1141.66C270.532 1142.33 269.868 1142.78 269.237 1142.56L246.672 1134.73C246.27 1134.59 246 1134.21 246 1133.79V1124.91C246 1124.65 246.105 1124.39 246.293 1124.21L248.707 1121.79C248.895 1121.61 249 1121.35 249 1121.09V1097.69C249 1097.27 248.743 1096.9 248.355 1096.76L234.585 1091.53C234.528 1091.51 234.473 1091.48 234.421 1091.45C225.889 1086.28 223.51 1081.85 223.026 1072.07C223.009 1071.72 223.182 1071.38 223.479 1071.19L231.295 1066.13C231.43 1066.05 231.583 1065.99 231.743 1065.98L241.73 1065.03C241.907 1065.01 242.076 1064.95 242.22 1064.84Z" fill="#9AECA4" stroke="#9AECA4"/>
<path id="GomezFarias" d="M169.09 1086.15L173.844 1067.61C173.939 1067.24 174.24 1066.95 174.616 1066.88L193.903 1063.02C193.967 1063.01 194.033 1063 194.099 1063H196.269C196.421 1063 196.571 1063.03 196.708 1063.1L216.651 1072.83C216.876 1072.94 217.053 1073.13 217.145 1073.37C223.708 1089.82 229.933 1095.38 244.251 1099.3C244.689 1099.42 245 1099.82 245 1100.27V1117.76C245 1117.92 244.964 1118.07 244.894 1118.21L244.052 1119.9C244.017 1119.97 243.975 1120.03 243.926 1120.09L241.732 1122.72C241.582 1122.9 241.5 1123.13 241.5 1123.36V1132.82C241.5 1133.44 240.946 1133.91 240.338 1133.8C238.223 1133.42 235.333 1132.83 235 1132.5C234.609 1132.11 229.722 1131.05 227.168 1130.53C227.056 1130.51 226.95 1130.47 226.851 1130.41L224.75 1129.15C224.587 1129.05 224.455 1128.91 224.37 1128.74L223.582 1127.16C223.528 1127.06 223.494 1126.94 223.482 1126.82L223.037 1122.37C223.013 1122.13 222.904 1121.91 222.731 1121.74L213.361 1112.84C213.134 1112.63 212.819 1112.53 212.508 1112.57C211.402 1112.72 209.686 1112.84 209 1112.5C208.245 1112.12 201.189 1101.02 197.178 1094.59C196.833 1094.03 196.061 1093.96 195.609 1094.43L184.29 1106.18C183.871 1106.61 183.166 1106.58 182.789 1106.11L181.623 1104.65C181.542 1104.55 181.442 1104.47 181.328 1104.4L177.234 1102.13C177.081 1102.04 176.952 1101.92 176.862 1101.77L174 1097L169.156 1086.83C169.055 1086.62 169.032 1086.38 169.09 1086.15Z" fill="#9AECA4" stroke="#9AECA4"/>
<path id="Ocampo" d="M145 1103.64V1076.64C145 1075.89 145.791 1075.41 146.457 1075.75L163.226 1084.36C163.405 1084.45 163.551 1084.59 163.647 1084.77L166.444 1089.9C166.481 1089.97 166.51 1090.04 166.531 1090.11L167.971 1095.39C167.99 1095.46 168.017 1095.53 168.052 1095.6L172.374 1103.76C172.457 1103.92 172.579 1104.05 172.728 1104.14L176.37 1106.42C176.456 1106.47 176.534 1106.54 176.6 1106.62L179.201 1109.65C179.391 1109.87 179.668 1110 179.96 1110H184.628C184.868 1110 185.1 1109.91 185.282 1109.76L194.77 1101.56C195.334 1101.08 196.213 1101.35 196.394 1102.08L197.429 1106.22C197.475 1106.4 197.573 1106.57 197.712 1106.7L206.784 1115.3C206.925 1115.43 207.102 1115.52 207.293 1115.55L212.182 1116.44C212.389 1116.48 212.58 1116.58 212.725 1116.73C217.074 1121.31 218.413 1124.56 220.443 1130.34C220.48 1130.44 220.5 1130.56 220.5 1130.67V1145.38C220.5 1145.76 220.714 1146.11 221.053 1146.28L222.949 1147.22C223.287 1147.39 223.5 1147.74 223.5 1148.12C223.5 1148.36 223.408 1148.6 223.243 1148.78L209.5 1164C205.113 1170.19 203.904 1175.07 203.075 1184.61C203.031 1185.12 202.615 1185.51 202.107 1185.53C192.294 1185.86 187.089 1186.43 180.184 1188.31C179.774 1188.42 179.337 1188.27 179.093 1187.92L172.799 1178.93C172.611 1178.66 172.306 1178.5 171.979 1178.5H171.162C171.055 1178.5 170.948 1178.52 170.846 1178.55L168.464 1179.35C168.171 1179.44 167.85 1179.4 167.593 1179.23L166.752 1178.67C166.588 1178.56 166.395 1178.5 166.197 1178.5H163.623C163.541 1178.5 163.46 1178.49 163.381 1178.47L157.97 1177.12C157.673 1177.04 157.425 1176.83 157.298 1176.56C152.704 1166.48 148.631 1161.35 141.639 1152.78C141.288 1152.35 140.651 1152.29 140.224 1152.65L136.64 1155.63C135.989 1156.18 135 1155.71 135 1154.86V1143.5V1141.26C135 1141.09 135.043 1140.92 135.126 1140.77L137.374 1136.73C137.457 1136.58 137.5 1136.41 137.5 1136.24V1113.36C137.5 1113.13 137.582 1112.9 137.732 1112.72L144.768 1104.28C144.918 1104.1 145 1103.87 145 1103.64Z" fill="#9AECA4" stroke="#9AECA4"/>
<path id="NuevoMorelos" d="M196.935 1225.37L181.386 1193.78C181.165 1193.34 181.308 1192.79 181.75 1192.55C185.606 1190.5 193.888 1189.16 204.408 1188.06C204.772 1188.02 205.129 1188.19 205.336 1188.49L236.824 1234.24C236.939 1234.41 237 1234.61 237 1234.81V1241.63C237 1242.13 236.631 1242.55 236.135 1242.62L226.533 1243.93C226.2 1243.97 225.867 1243.85 225.646 1243.59L219.27 1236.31C219.097 1236.11 218.853 1235.99 218.591 1235.97L199.284 1234.56C198.824 1234.52 198.447 1234.18 198.371 1233.72L197.024 1225.65C197.008 1225.55 196.978 1225.46 196.935 1225.37Z" fill="#9AECA4" stroke="#9AECA4"/>
<path id="AntiguoMorelos" d="M208.524 1176.93C212.426 1165.61 217.016 1160.77 225.058 1152.92C225.531 1152.46 226.313 1152.57 226.631 1153.15C230.477 1160.16 237.365 1172.85 238.5 1175.5C239.628 1178.13 241.138 1180.97 241.869 1182.27C241.955 1182.42 242 1182.59 242 1182.77V1185V1188.72C242 1188.9 242.049 1189.08 242.143 1189.24L245 1194L261.948 1225.9C261.983 1225.97 262.023 1226.03 262.072 1226.08C263.12 1227.28 265.655 1229.72 268 1230.5C270.272 1231.26 269.139 1234.17 268.163 1235.75C268.059 1235.91 268 1236.11 268 1236.3V1238.53C268 1238.83 267.868 1239.11 267.64 1239.3L265.278 1241.27C265.098 1241.42 264.872 1241.5 264.638 1241.5H241C240.448 1241.5 240 1241.05 240 1240.5V1233.3C240 1233.1 239.944 1232.91 239.839 1232.75L210.689 1187.79C210.566 1187.6 210.382 1187.46 210.174 1187.38C207.573 1186.33 207.208 1183.96 208.486 1177.07C208.495 1177.03 208.508 1176.98 208.524 1176.93Z" fill="#9AECA4" stroke="#9AECA4"/>
<path id="ElMante" d="M225 1143.2V1133.5C225 1133.28 225.241 1133.13 225.437 1133.24L229.419 1135.45C229.473 1135.48 229.53 1135.51 229.588 1135.53L232.5 1136.5C233.667 1137 236.1 1138 236.5 1138C236.871 1138 238.417 1138.29 239.304 1138.46C239.434 1138.49 239.567 1138.49 239.696 1138.46L241.903 1138.02C241.967 1138.01 242.033 1138 242.099 1138H244.819C244.939 1138 245.058 1138.02 245.17 1138.06L249 1139.5L264.432 1144.98C264.477 1144.99 264.524 1145 264.571 1145.01L269.203 1145.94C269.397 1145.98 269.574 1146.07 269.714 1146.21L272 1148.5L280.291 1159.23C280.427 1159.41 280.5 1159.62 280.5 1159.84V1167.26C280.5 1167.42 280.539 1167.57 280.589 1167.72C280.729 1168.13 280.831 1168.84 280.5 1169.5C280.14 1170.22 279.214 1170.72 278.667 1170.94C278.557 1170.98 278.453 1171.04 278.361 1171.11L276.375 1172.7C276.138 1172.89 276 1173.18 276 1173.48V1186.41C276 1186.77 276.201 1187.11 276.523 1187.28L293.022 1196.24C293.32 1196.4 293.68 1196.4 293.978 1196.24L299 1193.5L312 1187.5L314.178 1186.63C314.386 1186.55 314.617 1186.53 314.833 1186.6L340.784 1194.29C341.209 1194.41 341.5 1194.8 341.5 1195.25V1202.66C341.5 1202.88 341.574 1203.1 341.71 1203.27L356.79 1222.73C356.926 1222.9 357 1223.12 357 1223.34V1228.5V1235.5V1236C357 1236.55 356.552 1237 356 1237H354.5H347.5H336H329.578C329.526 1237 329.474 1237 329.423 1237.01L320 1238.5L306.5 1242L291 1245L283.197 1246.46C283.067 1246.49 282.933 1246.49 282.804 1246.46L276.104 1245.02C276.035 1245.01 275.964 1245 275.894 1245H270.5C269.948 1245 269.5 1244.55 269.5 1244V1243.8C269.5 1243.61 269.558 1243.41 269.668 1243.25L272.318 1239.27C272.436 1239.1 272.495 1238.88 272.484 1238.67L272.028 1229.08C272.011 1228.72 271.8 1228.4 271.476 1228.24L271 1228L268.714 1226.63C268.574 1226.54 268.456 1226.43 268.371 1226.29L247.643 1191.74C247.549 1191.58 247.5 1191.4 247.5 1191.22V1190.16C247.5 1190.05 247.483 1189.95 247.449 1189.85L246.535 1187.11C246.512 1187.04 246.496 1186.96 246.489 1186.89L246.02 1182.2C246.007 1182.07 245.968 1181.94 245.906 1181.83L227 1146.5L225.168 1143.75C225.058 1143.59 225 1143.39 225 1143.2Z" fill="#9AECA4" stroke="#9AECA4"/>
</g>
</g>
</svg>
