<svg width="522" height="538" viewBox="0 0 522 538" fill="none" xmlns="http://www.w3.org/2000/svg">
<path id="Vector_Victoria" d="M182.072 16.4499L199.743 4.17863C199.91 4.06233 200.109 4 200.313 4H212.8C212.932 4 213.063 4.02614 213.185 4.07692L224.586 8.82743C224.849 8.9372 225.147 8.92917 225.404 8.80536L238.294 2.599C238.43 2.53384 238.578 2.5 238.728 2.5H239.086C239.351 2.5 239.605 2.60536 239.793 2.79289L239.928 2.9281C239.976 2.97591 240.019 3.02844 240.056 3.0849L254.31 24.7111C254.433 24.8982 254.616 25.0385 254.828 25.1094L260.411 26.9704C260.47 26.9901 260.531 27.0042 260.593 27.0126L300.764 32.4679C300.919 32.489 301.069 32.5474 301.198 32.6364C306.51 36.3036 309.28 38.6561 313.255 43.2174C313.412 43.3985 313.5 43.6322 313.5 43.8725V49.109C313.5 49.3604 313.405 49.6026 313.235 49.7873L302.069 61.884C301.74 62.2404 301.714 62.7813 302.007 63.1674L310.911 74.8833C310.97 74.9607 311.017 75.0462 311.051 75.1373L312.5 79L313.335 80.6691C313.441 80.8826 313.466 81.1268 313.421 81.3612C313.277 82.1188 313.161 83.3224 313.5 84C313.717 84.4339 313.748 84.8875 313.704 85.2649C313.651 85.714 313.735 86.2088 314.073 86.5092L317.838 89.8563C317.945 89.951 318.03 90.0674 318.088 90.1976L319.77 93.9822C319.913 94.3034 320.22 94.5269 320.569 94.5696C350.677 98.2563 366.386 100.817 392.366 105.973C392.454 105.991 392.54 106.02 392.62 106.06L396.053 107.776C396.334 107.917 396.666 107.917 396.947 107.776L397.358 107.571C397.452 107.524 397.553 107.492 397.657 107.476L407.158 106.051C407.38 106.018 407.583 105.912 407.737 105.749L416 97L416.5 96.5L416.707 96.2929C416.895 96.1054 417.149 96 417.414 96H417.5H417.586C417.851 96 418.105 96.1054 418.293 96.2929L430.731 108.731C430.904 108.904 431.135 109.008 431.38 109.022L447.795 109.988C447.93 109.996 448.062 110.031 448.184 110.092L448.447 110.224C448.786 110.393 449 110.739 449 111.118V111.68C449 111.888 448.935 112.091 448.814 112.261L446.686 115.239C446.565 115.409 446.5 115.612 446.5 115.82V128.653C446.5 129.142 446.853 129.559 447.336 129.639L449.053 129.926C449.337 129.973 449.63 129.893 449.854 129.711C469.166 113.963 484.199 105.115 517.295 89.596C517.428 89.5337 517.576 89.5 517.723 89.5H518H518.197C518.395 89.5 518.588 89.5584 518.752 89.6679L519.555 90.2031C519.833 90.3886 520 90.7008 520 91.0352V97.7639C520 97.9192 519.964 98.0723 519.894 98.2111L519.5 99L519.149 99.7019C519.052 99.8954 518.895 100.052 518.702 100.149L518 100.5L517.211 100.894C517.072 100.964 516.919 101 516.764 101H516.414C516.149 101 515.895 101.105 515.707 101.293L515.293 101.707C515.105 101.895 515 102.149 515 102.414V353.246C515 353.692 515.296 354.085 515.725 354.207L518.251 354.929C518.414 354.975 518.563 355.063 518.683 355.183L519.707 356.207C519.895 356.395 520 356.649 520 356.914V366.667C520 366.883 519.93 367.094 519.8 367.267L518.922 368.437C518.669 368.775 518.231 368.917 517.828 368.793L512.21 367.065C512.072 367.022 511.944 366.95 511.836 366.853L497.928 354.384C497.663 354.146 497.291 354.067 496.954 354.179C491.595 355.962 488.502 357.814 483.217 360.874C483.076 360.956 482.914 361.004 482.751 361.007C479.935 361.065 478.073 360.29 474.749 358.16C474.587 358.056 474.397 358 474.205 358H462H461.303C461.105 358 460.912 357.942 460.748 357.832L444.734 347.156C444.581 347.054 444.403 346.996 444.219 346.989L432.282 346.511C432.098 346.504 431.912 346.549 431.751 346.64C423.037 351.569 419.701 355.988 415.5 365.5L415 366.5L414.606 367.289C414.536 367.428 414.5 367.581 414.5 367.736V368.866C414.5 368.955 414.488 369.043 414.465 369.129L413.1 374.134C413.036 374.37 412.887 374.574 412.682 374.708L400.087 382.943C400.029 382.981 399.975 383.025 399.927 383.073L399.293 383.707C399.105 383.895 399 384.149 399 384.414V385.5V388.5V392.586C399 392.851 398.895 393.105 398.707 393.293L398 394L397.293 394.707C397.105 394.895 397 395.149 397 395.414V396.338C397 396.445 397.017 396.552 397.051 396.654L397.949 399.346C397.983 399.448 398 399.555 398 399.662V401.586C398 401.851 397.895 402.105 397.707 402.293L397.153 402.847C397.052 402.948 396.931 403.026 396.797 403.076L389.203 405.924C389.069 405.974 388.948 406.052 388.847 406.153L388.793 406.207C388.605 406.395 388.5 406.649 388.5 406.914V407V411V412.086C388.5 412.351 388.395 412.605 388.207 412.793L388 413L387.793 413.207C387.605 413.395 387.351 413.5 387.086 413.5H386.914C386.649 413.5 386.395 413.395 386.207 413.207L386 413L385.626 412.626C385.543 412.543 385.475 412.445 385.425 412.338L376.57 393.152C376.524 393.052 376.494 392.944 376.483 392.833L375.556 383.556C375.521 383.211 375.31 382.908 374.997 382.756L359.295 375.143C359.103 375.05 358.944 374.894 358.845 374.706C353.28 364.177 350.726 360.187 348.288 359.114C348.103 359.032 347.893 359.029 347.697 359.083C338.459 361.626 333.752 363.687 326.592 368.439C326.531 368.479 326.474 368.527 326.424 368.579C319.732 375.529 316.281 379.924 310.799 388.055C310.613 388.332 310.3 388.5 309.967 388.5H309.5H309.13C308.745 388.5 308.394 388.279 308.228 387.931L303.098 377.205C303.033 377.07 303 376.922 303 376.773V372.96C303 372.668 303.128 372.391 303.349 372.201L306.151 369.799C306.372 369.609 306.5 369.332 306.5 369.04V356.818C306.5 356.611 306.436 356.409 306.316 356.24L298.299 344.922C298.111 344.657 297.807 344.5 297.483 344.5H287.5H286.162C286.055 344.5 285.948 344.483 285.846 344.449L284.743 344.081C284.583 344.028 284.44 343.936 284.326 343.813L278.656 337.706C278.29 337.312 278.301 336.699 278.681 336.319L283.707 331.293C283.895 331.105 284 330.851 284 330.586V325.914C284 325.649 283.895 325.395 283.707 325.207L265.793 307.293C265.605 307.105 265.351 307 265.086 307H263H244.5H243H240.693C240.565 307 240.439 307.024 240.321 307.072L238.288 307.885C238.101 307.96 237.94 308.09 237.828 308.258L237 309.5L210 340.5L209.115 341.385C209.039 341.461 208.951 341.525 208.855 341.573L208.307 341.847C208.108 341.946 207.882 341.976 207.664 341.933L205.836 341.567C205.618 341.524 205.392 341.554 205.193 341.653L204.053 342.224C203.714 342.393 203.5 342.739 203.5 343.118V343.5V371.841C203.5 372.241 203.738 372.602 204.106 372.76L206.823 373.924C206.94 373.974 207.046 374.046 207.136 374.136L207.207 374.207C207.395 374.395 207.5 374.649 207.5 374.914V375V375.26C207.5 375.418 207.463 375.573 207.391 375.714L193.709 402.589C193.577 402.85 193.336 403.039 193.051 403.107L171.08 408.361C170.723 408.447 170.441 408.721 170.346 409.076L166.526 423.402C166.509 423.467 166.485 423.531 166.454 423.591L166.029 424.441C166.01 424.48 166 424.522 166 424.566C166 424.768 165.79 424.903 165.606 424.818L146.768 416.124C146.593 416.043 146.398 416.014 146.208 416.042L143.161 416.477C143.054 416.492 142.951 416.525 142.855 416.573L142.145 416.927C142.049 416.975 141.961 417.039 141.885 417.115L141.793 417.207C141.605 417.395 141.5 417.649 141.5 417.914V418V421.5V445.126C141.5 445.367 141.413 445.6 141.255 445.782L131.745 456.718C131.587 456.9 131.5 457.133 131.5 457.374V479.764C131.5 479.919 131.464 480.072 131.394 480.211L130.606 481.789C130.536 481.928 130.5 482.081 130.5 482.236V506.244C130.5 506.412 130.542 506.577 130.623 506.725L138.835 521.7C138.942 521.894 138.981 522.119 138.946 522.338L137.051 534.18C137.018 534.388 136.92 534.58 136.771 534.729L136.293 535.207C136.105 535.395 135.851 535.5 135.586 535.5H131.712C131.572 535.5 131.434 535.471 131.306 535.414L127.306 533.636C127.107 533.548 126.943 533.397 126.838 533.208L124.695 529.352C124.57 529.126 124.362 528.954 124.112 528.89C121.583 528.234 120.317 529.199 118.271 530.79C118.096 530.926 117.88 531 117.658 531H116.736C116.581 531 116.428 530.964 116.289 530.894L115.645 530.573C115.549 530.524 115.461 530.461 115.385 530.385L114.059 529.059C114.02 529.02 113.984 528.977 113.952 528.933L109.299 522.419C109.111 522.156 108.808 522 108.485 522H100.17C100.057 522 99.9458 522.019 99.8396 522.056L90.1211 525.458C90.0407 525.486 89.9554 525.504 89.8704 525.51C80.6172 526.255 75.6995 525.563 67.8571 522.156C67.6288 522.057 67.444 521.874 67.3429 521.646L65.5862 517.694C65.5294 517.566 65.5 517.428 65.5 517.288V507.736C65.5 507.581 65.4639 507.428 65.3944 507.289L65.1852 506.87C65.0666 506.633 64.8587 506.453 64.607 506.369L63.639 506.046C63.5468 506.016 63.4507 505.998 63.3535 505.995L31 505H29.7361C29.5808 505 29.4277 504.964 29.2889 504.894L28.6451 504.573C28.549 504.525 28.4613 504.461 28.3853 504.385L28.2929 504.293C28.1054 504.105 28 503.851 28 503.586V477.759C28 477.589 27.9567 477.422 27.8742 477.273L23.1502 468.77C23.0524 468.594 22.9036 468.452 22.7233 468.362L13.0807 463.54C13.027 463.513 12.9759 463.482 12.9279 463.446L11.4 462.3C11.1482 462.111 11 461.815 11 461.5V461.474C11 461.174 11.1346 460.89 11.3668 460.7L21.6332 452.3C21.8654 452.11 22 451.826 22 451.526V440.815C22 440.61 22.0631 440.41 22.1808 440.242L25.3192 435.758C25.4369 435.59 25.5 435.39 25.5 435.185V425.414C25.5 425.149 25.3946 424.895 25.2071 424.707L24.6038 424.104C24.535 424.035 24.4766 423.956 24.4304 423.871L21 417.5L19.1491 413.798C19.0523 413.605 18.8954 413.448 18.7019 413.351L18.135 413.067C18.0455 413.023 17.9632 412.965 17.891 412.896L6.5 402L6.00965 401.51C5.70529 401.205 5.62984 400.74 5.82233 400.355L6 400L10.3944 391.211C10.4639 391.072 10.5 390.919 10.5 390.764V365.414C10.5 365.149 10.3946 364.895 10.2071 364.707L10.0649 364.565C10.0217 364.522 9.97468 364.483 9.92434 364.448L2.07566 359.052C2.02532 359.017 1.97827 358.978 1.93508 358.935L1.5 358.5L1.29289 358.293C1.10536 358.105 1 357.851 1 357.586V357.236C1 357.081 1.03615 356.928 1.10557 356.789L1.36977 356.26C1.45482 356.09 1.58662 355.948 1.7497 355.85L6.26249 353.143C6.4179 353.049 6.59574 353 6.77699 353H41.369C41.4559 353 41.5426 352.989 41.6266 352.966L48.2577 351.198C48.6954 351.081 49 350.685 49 350.232V338.839C49 338.619 48.9275 338.405 48.7936 338.231L38.0334 324.196C37.7281 323.798 37.7651 323.235 38.1199 322.88L43.5 317.5L47.9068 312.114C47.9686 312.038 48.0197 311.953 48.0571 311.863C54.091 297.321 57.3903 288.502 62.7755 271.701C62.9083 271.287 63.2952 271 63.7301 271H69.2487C69.4137 271 69.5761 270.959 69.7215 270.881L89.7785 260.119C89.9239 260.041 90.0863 260 90.2513 260H102.91C102.97 260 103.03 260.005 103.089 260.016L108.411 260.984C108.47 260.995 108.53 261 108.59 261H127.552C127.837 261 128.108 260.879 128.298 260.666L140.5 247L144.332 241.252C144.442 241.088 144.5 240.895 144.5 240.697V234.509C144.5 234.189 144.347 233.889 144.088 233.7L133.912 226.3C133.653 226.111 133.5 225.811 133.5 225.491V222.414C133.5 222.149 133.605 221.895 133.793 221.707L134.855 220.645C134.951 220.549 135.026 220.435 135.076 220.309L135.779 218.554C135.915 218.213 135.853 217.824 135.618 217.542L133.593 215.112C133.531 215.038 133.481 214.955 133.443 214.866L132.081 211.689C132.028 211.564 132 211.43 132 211.295V205.624C132 205.242 131.782 204.892 131.437 204.73C127.721 202.994 124.97 202.615 119.437 203.434C119.159 203.475 118.875 203.4 118.657 203.225L116.744 201.695C116.585 201.568 116.469 201.396 116.41 201.201L115.067 196.724C115.023 196.577 114.945 196.441 114.84 196.329L101.389 181.916C101.148 181.658 101.061 181.292 101.16 180.953L118.96 120.138C118.986 120.046 119 119.952 119 119.857V117.066C119 116.715 118.816 116.389 118.514 116.209L116.75 115.15C116.587 115.052 116.455 114.91 116.37 114.74L110.106 102.211C110.036 102.072 110 101.919 110 101.764V99.5352C110 99.2008 109.833 98.8886 109.555 98.7031L107.076 97.0509C107.026 97.017 106.972 96.9879 106.916 96.9638L103.689 95.5809C103.564 95.5275 103.43 95.5 103.295 95.5H99.8621C99.6281 95.5 99.4016 95.418 99.2219 95.2682L96.7781 93.2318C96.5984 93.082 96.3719 93 96.1379 93H92.8333C92.617 93 92.4064 92.9298 92.2333 92.8L88.7138 90.1604C88.5737 90.0553 88.4637 89.9153 88.3947 89.7543L87.2667 87.1223C87.1056 86.7465 87.1896 86.3104 87.4787 86.0213L91 82.5C94.2116 78.7848 95.1484 75.3591 96.405 68.9842C96.465 68.6799 96.6625 68.4187 96.94 68.28L103.289 65.1056C103.428 65.0361 103.581 65 103.736 65H111.338C111.445 65 111.552 64.9827 111.654 64.9487L124.835 60.555C124.944 60.5186 125.046 60.4637 125.137 60.3926L138.846 49.6213C138.948 49.5412 139.064 49.4817 139.189 49.4461L142.22 48.5799C142.403 48.5277 142.567 48.4246 142.693 48.2827L146.382 44.1322C146.46 44.0448 146.553 43.9716 146.656 43.9161L153 40.5C162.903 34.3715 169.213 29.2053 181.937 16.563C181.978 16.5217 182.024 16.4832 182.072 16.4499Z" fill="#45C4AF" stroke="white" stroke-width="4"/>
</svg>
