<svg width="403" height="428" viewBox="0 0 403 428" fill="none" xmlns="http://www.w3.org/2000/svg">
<g id="FD2-Reynosa">
<path id="RioBravo" d="M385.557 279.5H346.09C345.726 279.5 345.39 279.698 345.216 280.018C342.124 285.714 340.782 289.841 339.023 297.893C339.008 297.963 339 298.033 339 298.105V362.32C339 362.454 339.028 362.566 339.081 362.69C347.366 382.271 347.648 393.38 342.746 412.546C342.612 413.073 342.918 413.619 343.441 413.768L392.97 427.849C393.3 427.943 393.655 427.861 393.91 427.633L402.667 419.798C402.879 419.608 403 419.337 403 419.053V411.989C403 411.68 402.858 411.389 402.614 411.2L380.886 394.3C380.642 394.111 380.5 393.82 380.5 393.511V389.259C380.5 389.089 380.457 388.923 380.376 388.774C379.512 387.181 378 384.024 378 382.5V376V365V350.245C378 350.084 378.039 349.925 378.113 349.783L383.887 338.717C383.961 338.575 384 338.416 384 338.255V308.954C384 308.665 384.124 308.391 384.341 308.201L387.631 305.322C387.864 305.119 387.989 304.82 387.971 304.511L386.555 280.441C386.524 279.913 386.087 279.5 385.557 279.5Z" fill="#13678B"/>
<path id="Reynosa" d="M252.111 272.296C253.526 269.693 268.073 243 269.5 243C270.923 243 288.985 255.143 290.846 256.396C290.955 256.47 291.066 256.513 291.196 256.539C292.098 256.713 293.758 257 294.5 257H296.838C296.945 257 297.052 257.017 297.154 257.051L299.858 257.953C299.952 257.984 300.041 258.029 300.122 258.087L325.802 276.359C325.932 276.452 326.082 276.512 326.24 276.534L339.141 278.377C339.634 278.448 340 278.87 340 279.367V280.167C340 280.383 339.93 280.594 339.8 280.767L338.629 282.327C338.544 282.441 338.484 282.57 338.453 282.709C337.769 285.774 336.391 291.609 336 292C335.6 292.4 335.167 295.167 335 296.5V298L335.5 303.5V323.5V342V362.846C335.5 362.948 335.516 363.05 335.546 363.147L338.5 372.5L341.949 380.876C341.983 380.958 342.006 381.045 342.017 381.133L343 389V395.917C343 395.972 342.995 396.027 342.986 396.082L342.013 401.923C342.004 401.974 341.992 402.025 341.975 402.074L338.865 411.406C338.672 411.983 338.013 412.257 337.469 411.984L335.572 411.036C335.524 411.012 335.474 410.992 335.423 410.976L327.968 408.646C327.673 408.554 327.352 408.603 327.098 408.78L311.521 419.637C311.203 419.858 310.786 419.876 310.45 419.683L298.232 412.634C298.08 412.546 297.908 412.5 297.732 412.5H256.93C256.406 412.5 255.971 412.095 255.932 411.573L247.038 289.525C247.014 289.196 247.154 288.877 247.411 288.671L251.625 285.3C251.862 285.11 252 284.823 252 284.519V272.754C252 272.587 252.031 272.443 252.111 272.296Z" fill="#13678B"/>
<path id="DiazOrdaz" d="M222.012 242.923L223.87 230.848C223.945 230.36 224.364 230 224.858 230H225.167C225.383 230 225.594 230.07 225.767 230.2L227.41 231.432C227.47 231.477 227.533 231.515 227.601 231.545C230.635 232.892 236.604 235.5 237 235.5C237.394 235.5 245.567 239.374 249.798 241.403C249.933 241.468 250.078 241.5 250.228 241.5H264C264.552 241.5 265 241.948 265 242.5V242.724C265 242.905 264.951 243.082 264.859 243.237L248.141 271.263C248.049 271.418 248 271.595 248 271.776V282.434C248 282.785 247.816 283.111 247.514 283.291L245.5 284.5L243.267 285.84C243.093 285.944 242.892 285.993 242.689 285.98L219.5 284.5C218.948 284.5 218.5 284.052 218.5 283.5V254.155C218.5 254.052 218.516 253.95 218.547 253.852L221.976 243.074C221.992 243.025 222.004 242.974 222.012 242.923Z" fill="#13678B"/>
<path id="Camargo" d="M169.936 210.33L168.632 206.852C168.552 206.638 168.604 206.396 168.766 206.234C168.911 206.089 169.122 206.03 169.321 206.08L170.894 206.473C170.964 206.491 171.033 206.516 171.098 206.549L173 207.5L174.902 208.451C174.967 208.484 175.036 208.509 175.106 208.527L176.856 208.964C176.951 208.988 177.043 209.026 177.128 209.077L179.422 210.453C179.474 210.484 179.529 210.511 179.585 210.532L183.343 211.941C183.447 211.98 183.557 212.002 183.667 212.005L201.686 212.492C201.891 212.497 202.088 212.565 202.253 212.686L220.859 226.396C220.952 226.465 221.033 226.549 221.097 226.646L221.77 227.655C221.917 227.876 221.97 228.145 221.921 228.406C221.746 229.336 221.5 230.812 221.5 231.5C221.5 232.5 221 233 221 233.5C221 233.875 220.415 235.157 220.067 235.865C220.023 235.955 219.992 236.05 219.975 236.148L219.52 238.881C219.507 238.96 219.484 239.037 219.453 239.111C218.94 240.314 218 242.612 218 243C218 243.4 217.667 244.5 217.5 245L216.5 248.5C216.167 249.333 215.4 251.2 215 252C214.5 253 214.5 254.5 214.5 255.5C214.5 256.27 214.191 258.03 214.019 258.903C214.006 258.968 214 259.032 214 259.098V264C214 264.5 213.5 269.5 214 270C214.4 270.4 214.167 279.167 214 283.5V284.264C214 284.419 213.964 284.572 213.894 284.711L213.776 284.947C213.607 285.286 213.261 285.5 212.882 285.5H201H199.914C199.649 285.5 199.395 285.605 199.207 285.793L198.5 286.5L190 297L188.65 299.25C188.552 299.413 188.41 299.545 188.24 299.63L187.5 300L185.831 300.835C185.617 300.941 185.373 300.968 185.141 300.91L181.775 300.069C181.595 300.024 181.431 299.93 181.302 299.797L161.66 279.664C161.555 279.556 161.475 279.426 161.427 279.282L161.051 278.154C161.017 278.052 161 277.945 161 277.838V277.236C161 277.081 161.036 276.928 161.106 276.789L161.453 276.093C161.484 276.031 161.509 275.966 161.526 275.899L169.935 243.747C169.978 243.585 169.979 243.415 169.938 243.252L169.549 241.696C169.517 241.567 169.459 241.445 169.379 241.338L168.054 239.572C168.018 239.524 167.987 239.473 167.96 239.419L167.5 238.5L166.606 236.711C166.536 236.572 166.5 236.419 166.5 236.264V234.123C166.5 234.041 166.51 233.96 166.53 233.881L167.5 230L168.5 226L169.5 221.5L169.986 218.582C169.995 218.527 170 218.472 170 218.417V215V210.681C170 210.561 169.978 210.442 169.936 210.33Z" fill="#13678B"/>
<path id="Guerrero" d="M21.7947 46.08L0.683432 2.89793C0.363661 2.24385 0.827701 1.47822 1.55551 1.45907L56.3682 0.0166275C56.7541 0.00647176 57.1114 0.219359 57.2861 0.563587L73.3917 32.2866C73.4629 32.4269 73.5 32.582 73.5 32.7393V64.1373C73.5 64.3716 73.5823 64.5985 73.7325 64.7784L111.366 109.839C111.454 109.945 111.52 110.068 111.558 110.201L126.144 160.279C126.325 160.901 125.874 161.528 125.227 161.561C108.406 162.422 95.1132 165.193 72.7065 169.754C72.0868 169.881 71.5 169.408 71.5 168.776V163.77C71.5 162.901 70.1431 161.396 69.3672 161.003C63.4236 157.993 47.062 144.711 35.5 140C30.5876 137.998 21.5 140 22 138.5C22.4629 137.111 33.638 108.728 35.2953 104.52C35.4266 104.186 35.362 103.827 35.1382 103.548L27.6532 94.1915C27.5526 94.0657 27.421 93.9652 27.2735 93.9002C20.3765 90.8622 16.3918 89.1369 9.86578 88.5325C9.63083 88.5107 9.40849 88.4085 9.24165 88.2416L5.55025 84.5503C5.51679 84.5168 5.48575 84.481 5.45736 84.4431L3.06214 81.2495C2.74593 80.8279 2.81121 80.2332 3.21135 79.8903L9.3293 74.6463C9.4417 74.55 9.5313 74.4299 9.59165 74.2947L21.8094 46.9269C21.9302 46.6563 21.9248 46.3462 21.7947 46.08Z" fill="#13678B"/>
<path id="Mier" d="M127.215 164.163L73.0637 175.383C72.7148 175.455 72.4306 175.708 72.3179 176.046L66.5909 193.227C66.5315 193.406 66.5235 193.597 66.5677 193.779L74.3147 225.736C74.4234 226.184 74.825 226.5 75.2865 226.5H89.2679C89.4206 226.5 89.5713 226.535 89.7084 226.602L115.732 239.368C115.907 239.454 116.103 239.487 116.296 239.463L127.565 238.054C127.842 238.02 128.092 237.871 128.255 237.643L132.814 231.261C132.935 231.091 133 230.888 133 230.68V211.837C133 211.618 133.072 211.406 133.204 211.232L142.296 199.268C142.428 199.094 142.5 198.882 142.5 198.663V182.721C142.5 182.29 142.225 181.908 141.816 181.772L135.415 179.638C135.15 179.55 134.935 179.355 134.82 179.101L128.33 164.73C128.137 164.303 127.674 164.068 127.215 164.163Z" fill="#13678B"/>
<path id="MiguelAleman" d="M120.5 247.41V243.82C120.5 243.343 120.836 242.933 121.304 242.839L122.903 242.519C122.967 242.507 123.033 242.5 123.099 242.5H124.86C124.953 242.5 125.045 242.487 125.135 242.462L128.365 241.538C128.455 241.513 128.547 241.5 128.64 241.5H130.167C130.383 241.5 130.594 241.43 130.767 241.3L132.5 240L133.918 239.055C133.972 239.018 134.023 238.977 134.07 238.93L135.5 237.5L136.716 236.284C136.898 236.102 137.003 235.856 137.009 235.599L137.494 213.791C137.498 213.601 137.556 213.416 137.661 213.258L138.5 212L139.5 210L141 207.5L142.5 205.5L144.403 203.121C144.467 203.041 144.544 202.971 144.629 202.914L145.845 202.104C145.947 202.035 146.062 201.986 146.182 201.959L150.393 201.024C150.464 201.008 150.537 201 150.61 201H154.36C154.453 201 154.545 201.013 154.635 201.038L157.834 201.953C157.944 201.984 158.048 202.034 158.14 202.1L161.395 204.425C161.465 204.475 161.528 204.533 161.582 204.599L163.865 207.338C163.954 207.445 164.02 207.569 164.058 207.703L164.962 210.865C164.987 210.955 165 211.047 165 211.14V214.5V219.877C165 219.959 164.99 220.04 164.97 220.119L163.53 225.881C163.51 225.96 163.5 226.041 163.5 226.123V227.838C163.5 227.945 163.483 228.052 163.449 228.154L162.551 230.846C162.517 230.948 162.5 231.055 162.5 231.162V235.5V237.519C162.5 237.823 162.638 238.11 162.875 238.3L164.625 239.7C164.862 239.89 165 240.177 165 240.481V241.386C165 241.462 164.991 241.537 164.974 241.611L157.124 275.464C157.047 275.798 156.804 276.069 156.481 276.182L128.001 286.15C127.458 286.34 126.867 286.034 126.709 285.481L126 283L125 276L124 270.5L123 264L122 258.5L121.5 253L120.516 247.589C120.505 247.53 120.5 247.47 120.5 247.41Z" fill="#13678B"/>
</g>
</svg>
