<svg width="388" height="285" viewBox="0 0 388 285" fill="none" xmlns="http://www.w3.org/2000/svg">
<g id="Vector_ElMante">
<path d="M11.5 140.12V112.123C11.5 112.041 11.51 111.96 11.5299 111.881L11.6821 111.272C11.8421 110.632 12.5674 110.319 13.1425 110.643L27.7717 118.872C27.9214 118.956 28.0902 119 28.262 119H30H34.7253C35.1813 119 35.5796 118.691 35.6936 118.25L39.3862 103.941C39.4585 103.661 39.6485 103.426 39.9073 103.296L42.3519 102.074C42.45 102.025 42.5554 101.992 42.664 101.978L53.5 100.5L62.2325 99.0446C62.4077 99.0154 62.5719 98.9401 62.7083 98.8264L65.3195 96.6504C65.4382 96.5515 65.5324 96.4264 65.5946 96.2849L76.4153 71.6925C76.4712 71.5655 76.5 71.4284 76.5 71.2897V67.1623C76.5 67.0548 76.4827 66.948 76.4487 66.846L74.5661 61.1984C74.5225 61.0676 74.5064 60.9291 74.5189 60.7917L76.4708 39.3209C76.4898 39.1122 76.5738 38.9148 76.711 38.7565L108.672 1.87818C108.879 1.64013 109.185 1.51321 109.499 1.53566L129.693 2.97804C129.893 2.99235 130.087 3.06846 130.244 3.19324C137.88 9.248 141.789 13.0047 146.155 20.4085C146.364 20.7634 146.331 21.2117 146.072 21.5322C145.347 22.4296 144.327 23.6726 144 24L141.167 26.8331C141.057 26.9429 140.923 27.0256 140.776 27.0747L140.184 27.2721C139.775 27.4082 139.5 27.7903 139.5 28.2208V28.6492C139.5 28.8763 139.576 29.0954 139.718 29.2725C142.457 32.6828 147.721 39 148.5 39C154.83 38.2755 158.027 38.2479 162.567 38.9331C162.843 38.9748 163.088 39.1323 163.243 39.3648L169.832 49.2481C169.942 49.4123 170 49.6051 170 49.8025V52V54.6977C170 54.8951 169.942 55.0877 169.832 55.2519L166 61L164.643 63.2625C164.549 63.4179 164.5 63.5957 164.5 63.777V66.7186C164.5 66.9026 164.551 67.0831 164.647 67.2401L174.803 83.8602C175.151 84.4296 175.949 84.5049 176.397 84.0105L195 63.5C201.212 58.0107 205.403 56.1222 213.659 55.0438C213.878 55.0152 214.106 55.0611 214.294 55.1762C219.17 58.1491 220.326 61.6563 221.416 68.4679C221.469 68.799 221.683 69.0842 221.988 69.2241L239.417 77.2324C239.772 77.3955 240 77.7504 240 78.141V87.1379C240 87.3719 240.082 87.5984 240.232 87.7781L242.452 90.4423C242.484 90.4807 242.513 90.5215 242.539 90.5642L251.944 106.083C252.245 106.579 252.902 106.716 253.376 106.382L261 101L267.541 96.7952C267.827 96.6112 268 96.2943 268 95.954V89.3205C268 89.112 268.065 88.9088 268.186 88.7392L270.314 85.7608C270.435 85.5912 270.5 85.3879 270.5 85.1795V78.0352C270.5 77.7008 270.667 77.3886 270.945 77.2031L279.5 71.5L283.195 69.1906C283.392 69.0674 283.54 68.8794 283.614 68.6588L284.978 64.5674C284.992 64.5225 285.011 64.4788 285.032 64.4364L287 60.5L289.965 54.0756C289.988 54.0253 290.007 53.9731 290.022 53.9197L291.457 48.6566C291.486 48.5529 291.53 48.4544 291.59 48.365L294.335 44.2473C294.443 44.0859 294.594 43.9593 294.773 43.8844C296.024 43.3607 298.258 42.5 299 42.5H305.5H311.086C311.351 42.5 311.604 42.6042 311.792 42.7909C313.883 44.8628 317.737 48.5 318.5 48.5C319.237 48.5 321.444 50.7623 322.7 52.1613C322.892 52.3759 323.164 52.5 323.452 52.5H332H340.486C340.809 52.5 341.111 52.656 341.299 52.9188L343.201 55.5812C343.389 55.844 343.692 56 344.015 56H351.792C351.929 56 352.065 55.9718 352.191 55.9171L362.963 51.2336C363.294 51.0893 363.678 51.1356 363.966 51.3545L375.879 60.4082C375.959 60.469 376.048 60.5175 376.143 60.5518L386.324 64.2542C386.728 64.401 386.993 64.7895 386.982 65.2191L384.503 163.872C384.501 163.957 384.488 164.041 384.465 164.123L368.26 220.596C368.114 221.104 367.598 221.411 367.081 221.296L354.773 218.561C354.594 218.521 354.43 218.433 354.298 218.306L342.79 207.278C342.604 207.1 342.356 207 342.098 207H337.981C337.677 207 337.39 207.138 337.2 207.375L334.046 211.318C333.733 211.708 333.18 211.808 332.751 211.55L328.811 209.186C328.61 209.066 328.458 208.879 328.381 208.658L317.234 176.671C317.094 176.269 316.715 176 316.289 176H305.303C305.105 176 304.912 176.058 304.748 176.168L291.687 184.875C291.564 184.957 291.46 185.066 291.384 185.193L282.5 200L282.036 200.928C282.012 200.976 281.981 201.019 281.943 201.057C281.717 201.283 281.339 201.239 281.17 200.967L268.5 180.5L267.643 179.215C267.554 179.081 267.403 179 267.242 179C267.089 179 266.946 179.072 266.855 179.193L265.693 180.742C265.568 180.91 265.498 181.113 265.493 181.322L265.007 205.178C265.002 205.387 264.932 205.59 264.807 205.758L257.728 215.196C257.581 215.392 257.511 215.635 257.532 215.879L259.472 239.17C259.49 239.384 259.577 239.587 259.719 239.748L266.779 247.75C266.922 247.912 267.009 248.117 267.026 248.333L268.97 273.124C268.99 273.366 268.919 273.607 268.774 273.802L267.774 275.135C267.6 275.367 267.334 275.512 267.045 275.533L253.921 276.47C253.652 276.489 253.386 276.399 253.185 276.22L249.284 272.753C249.101 272.59 248.865 272.5 248.62 272.5H242.5H232H228.236C228.081 272.5 227.928 272.536 227.789 272.606L224.211 274.394C224.072 274.464 223.919 274.5 223.764 274.5H195.5C176.802 276.561 166.97 279.072 149.824 283.909C149.616 283.967 149.391 283.958 149.19 283.881L143.173 281.567C143.059 281.523 142.937 281.5 142.814 281.5H136.82C136.612 281.5 136.409 281.435 136.239 281.314L133.261 279.186C133.091 279.065 132.888 279 132.68 279H128H119H110H103.129C103.043 279 102.958 279.011 102.875 279.033L94.0555 281.354C93.7115 281.444 93.3454 281.345 93.0939 281.094L91 279L85.5 274.5L82.7519 272.668C82.5877 272.558 82.3946 272.5 82.1972 272.5H72.5H66.4538C66.1654 272.5 65.8911 272.376 65.7012 272.159L62.7474 268.783C62.5879 268.6 62.5 268.366 62.5 268.124V263.708C62.5 263.571 62.4718 263.435 62.4173 263.309L46.0531 225.622C46.0179 225.541 45.972 225.465 45.9167 225.396L38.4634 216.079C38.1882 215.735 37.7203 215.612 37.3112 215.776L35.6788 216.428C35.5607 216.476 35.4349 216.501 35.3078 216.496C34.7586 216.473 33.8545 216.354 33.5 216C33.1762 215.676 32.8306 215.549 32.6223 215.512C32.5418 215.498 32.4599 215.49 32.3806 215.47L30.6194 215.03C30.5401 215.01 30.4587 215 30.3769 215H28.6529C28.5516 215 28.4508 214.985 28.3541 214.954L23.7099 213.5C18.4776 204.497 14.9129 199.195 8.12103 190.311C7.78085 189.866 7.14069 189.787 6.7033 190.137L5 191.5L3.5 192.5L3.14467 192.678C2.75968 192.87 2.29471 192.795 1.99035 192.49L1.61475 192.115C1.53875 192.039 1.47549 191.951 1.42743 191.855L1.11404 191.228C1.03921 191.078 1.00313 190.912 1.0091 190.745L1.49224 177.217C1.49736 177.074 1.53314 176.934 1.59718 176.806L3.39443 173.211C3.46385 173.072 3.5 172.919 3.5 172.764V149.88C3.5 149.635 3.58988 149.399 3.75259 149.216L11.2474 140.784C11.4101 140.601 11.5 140.365 11.5 140.12Z" fill="#9AECA4"/>
<path d="M24 214C23.9027 213.832 23.806 213.665 23.7099 213.5M23.7099 213.5C18.4776 204.497 14.9129 199.195 8.12103 190.311C7.78085 189.866 7.14069 189.787 6.7033 190.137L5 191.5L3.5 192.5L3.14467 192.678C2.75968 192.87 2.29471 192.795 1.99035 192.49L1.61475 192.115C1.53875 192.039 1.47549 191.951 1.42743 191.855L1.11404 191.228C1.03921 191.078 1.00313 190.912 1.0091 190.745L1.49224 177.217C1.49736 177.074 1.53314 176.934 1.59718 176.806L3.39443 173.211C3.46385 173.072 3.5 172.919 3.5 172.764V149.88C3.5 149.635 3.58988 149.399 3.75259 149.216L11.2474 140.784C11.4101 140.601 11.5 140.365 11.5 140.12V112.123C11.5 112.041 11.51 111.96 11.5299 111.881L11.6821 111.272C11.8421 110.632 12.5674 110.319 13.1425 110.643L27.7717 118.872C27.9214 118.956 28.0902 119 28.262 119H30H34.7253C35.1813 119 35.5796 118.691 35.6936 118.25L39.3862 103.941C39.4585 103.661 39.6485 103.426 39.9073 103.296L42.3519 102.074C42.45 102.025 42.5554 101.992 42.664 101.978L53.5 100.5L62.2325 99.0446C62.4077 99.0154 62.5719 98.9401 62.7083 98.8264L65.3195 96.6504C65.4382 96.5515 65.5324 96.4264 65.5946 96.2849L76.4153 71.6925C76.4712 71.5655 76.5 71.4284 76.5 71.2897V67.1623C76.5 67.0548 76.4827 66.948 76.4487 66.846L74.5661 61.1984C74.5225 61.0676 74.5064 60.9291 74.5189 60.7917L76.4708 39.3209C76.4898 39.1122 76.5738 38.9148 76.711 38.7565L108.672 1.87818C108.879 1.64013 109.185 1.51321 109.499 1.53566L129.693 2.97804C129.893 2.99235 130.087 3.06846 130.244 3.19324C137.88 9.248 141.789 13.0047 146.155 20.4085C146.364 20.7634 146.331 21.2117 146.072 21.5322C145.347 22.4296 144.327 23.6726 144 24C143.625 24.375 142.049 25.9508 141.167 26.8331C141.057 26.9429 140.923 27.0256 140.776 27.0747L140.184 27.2721C139.775 27.4082 139.5 27.7903 139.5 28.2208V28.6492C139.5 28.8763 139.576 29.0954 139.718 29.2725C142.457 32.6828 147.721 39 148.5 39C154.83 38.2755 158.027 38.2479 162.567 38.9331C162.843 38.9748 163.088 39.1323 163.243 39.3648L169.832 49.2481C169.942 49.4123 170 49.6051 170 49.8025C170 50.5297 170 51.6532 170 52C170 52.3565 170 53.7983 170 54.6977C170 54.8951 169.942 55.0876 169.832 55.2519L166 61L164.643 63.2625C164.549 63.4179 164.5 63.5957 164.5 63.777V66.7186C164.5 66.9026 164.551 67.0831 164.647 67.2401L174.803 83.8602C175.151 84.4296 175.949 84.5049 176.397 84.0105L195 63.5C201.212 58.0107 205.403 56.1222 213.659 55.0438C213.878 55.0152 214.106 55.0611 214.294 55.1762C219.17 58.1491 220.326 61.6563 221.416 68.4679C221.469 68.799 221.683 69.0842 221.988 69.2241L239.418 77.2324C239.772 77.3955 240 77.7504 240 78.141V87.1379C240 87.3719 240.082 87.5984 240.232 87.7781L242.452 90.4423C242.484 90.4807 242.513 90.5215 242.539 90.5642L251.944 106.083C252.245 106.579 252.902 106.716 253.376 106.382L261 101L267.541 96.7952C267.827 96.6112 268 96.2943 268 95.954V89.3205C268 89.112 268.065 88.9088 268.186 88.7392L270.314 85.7608C270.435 85.5912 270.5 85.388 270.5 85.1795V78.0352C270.5 77.7008 270.667 77.3886 270.945 77.2031L279.5 71.5L283.195 69.1906C283.392 69.0674 283.54 68.8794 283.614 68.6588L284.978 64.5674C284.992 64.5225 285.011 64.4788 285.032 64.4364L287 60.5L289.965 54.0756C289.988 54.0253 290.007 53.9731 290.022 53.9197L291.457 48.6566C291.486 48.5529 291.53 48.4544 291.59 48.365L294.335 44.2473C294.443 44.0859 294.594 43.9593 294.773 43.8844C296.024 43.3607 298.258 42.5 299 42.5C299.8 42.5 303.667 42.5 305.5 42.5H311.086C311.351 42.5 311.604 42.6042 311.792 42.7909C313.883 44.8628 317.737 48.5 318.5 48.5C319.237 48.5 321.444 50.7623 322.7 52.1613C322.892 52.3759 323.164 52.5 323.452 52.5C326.246 52.5 331.243 52.5 332 52.5C332.752 52.5 337.681 52.5 340.486 52.5C340.809 52.5 341.111 52.656 341.299 52.9188L343.201 55.5812C343.389 55.844 343.692 56 344.015 56H351.792C351.929 56 352.065 55.9718 352.191 55.9171L362.963 51.2336C363.295 51.0893 363.678 51.1356 363.966 51.3545L375.879 60.4082C375.959 60.469 376.048 60.5175 376.143 60.5518L386.324 64.2542C386.728 64.401 386.993 64.7895 386.982 65.2191L384.503 163.872C384.501 163.957 384.488 164.041 384.465 164.123L368.26 220.596C368.114 221.104 367.598 221.411 367.081 221.296L354.773 218.561C354.594 218.521 354.43 218.433 354.298 218.306L342.79 207.278C342.604 207.1 342.356 207 342.098 207H337.981C337.677 207 337.39 207.138 337.2 207.375L334.046 211.318C333.733 211.708 333.18 211.808 332.751 211.55L328.811 209.186C328.61 209.066 328.458 208.879 328.381 208.658L317.234 176.671C317.094 176.269 316.715 176 316.29 176H305.303C305.105 176 304.912 176.058 304.748 176.168L291.687 184.875C291.564 184.957 291.46 185.066 291.384 185.193L282.5 200L282.036 200.928C282.012 200.976 281.981 201.019 281.943 201.057V201.057C281.717 201.283 281.339 201.239 281.17 200.967L268.5 180.5L267.643 179.215C267.554 179.081 267.403 179 267.242 179V179C267.089 179 266.946 179.072 266.855 179.193L265.693 180.742C265.568 180.91 265.498 181.113 265.493 181.322L265.007 205.178C265.002 205.387 264.932 205.59 264.807 205.758L257.728 215.196C257.581 215.392 257.511 215.635 257.532 215.879L259.472 239.17C259.49 239.384 259.577 239.587 259.719 239.748L266.779 247.75C266.922 247.912 267.009 248.117 267.026 248.333L268.97 273.124C268.99 273.366 268.919 273.607 268.774 273.802L267.774 275.135C267.6 275.367 267.334 275.512 267.045 275.533L253.921 276.47C253.652 276.489 253.386 276.399 253.185 276.22L249.284 272.753C249.101 272.59 248.865 272.5 248.62 272.5H242.5H232H228.236C228.081 272.5 227.928 272.536 227.789 272.606L224.211 274.394C224.072 274.464 223.919 274.5 223.764 274.5H195.5C176.802 276.561 166.97 279.072 149.824 283.909C149.616 283.967 149.391 283.958 149.19 283.881L143.173 281.567C143.059 281.523 142.937 281.5 142.814 281.5H136.82C136.612 281.5 136.409 281.435 136.239 281.314L133.261 279.186C133.091 279.065 132.888 279 132.68 279H128H119H110H103.129C103.043 279 102.958 279.011 102.875 279.033L94.0555 281.354C93.7115 281.444 93.3454 281.345 93.0939 281.094L91 279L85.5 274.5L82.7519 272.668C82.5877 272.558 82.3946 272.5 82.1972 272.5H72.5H66.4538C66.1654 272.5 65.8911 272.376 65.7012 272.159L62.7474 268.783C62.5879 268.6 62.5 268.366 62.5 268.124V263.708C62.5 263.571 62.4718 263.435 62.4173 263.309L46.0531 225.622C46.0179 225.541 45.972 225.465 45.9167 225.396L38.4634 216.079C38.1882 215.735 37.7203 215.612 37.3112 215.776L35.6788 216.428C35.5607 216.476 35.4349 216.501 35.3078 216.496C34.7586 216.473 33.8545 216.354 33.5 216C33.1762 215.676 32.8306 215.549 32.6223 215.512C32.5418 215.498 32.4599 215.49 32.3806 215.47L30.6194 215.03C30.5401 215.01 30.4587 215 30.3769 215H28.6529C28.5516 215 28.4508 214.985 28.3541 214.954L23.7099 213.5Z" stroke="#9AECA4" stroke-width="2"/>
</g>
</svg>
