<svg width="110" height="96" viewBox="0 0 110 96" fill="none" xmlns="http://www.w3.org/2000/svg">
<path id="Vector_Nuevo_Laredo" d="M1 31L9.24221 44.5754C9.4046 44.8429 9.68284 45.0189 9.9941 45.0511L23.6122 46.4599C23.8616 46.4857 24.0922 46.6042 24.2583 46.792L35.2015 59.1626C35.3913 59.3771 35.664 59.5 35.9505 59.5H47.1726C47.6527 59.5 48.0662 59.8458 48.1538 60.3178C50.6452 73.7507 50.2908 81.2766 48.1129 93.8528C48.0452 94.2437 48.2131 94.6421 48.5432 94.8621L49.2364 95.3243C49.4079 95.4386 49.6106 95.4972 49.8167 95.4919L107.481 94.0133C107.807 94.005 108.107 93.839 108.288 93.5683L108.608 93.0887C108.843 92.7359 108.83 92.2732 108.575 91.934L101.7 82.7667C101.57 82.5936 101.5 82.383 101.5 82.1667V81.8508C101.5 81.6237 101.577 81.4034 101.719 81.2261L103.432 79.0846C103.477 79.0284 103.528 78.9771 103.584 78.9317C104.188 78.4421 104.55 78.1263 104.839 77.7366C104.951 77.5864 105 77.4009 105 77.2139V33.4208C105 33.1517 104.892 32.8939 104.699 32.7058L82.7915 11.285C82.6046 11.1023 82.3537 11 82.0924 11H75.3152C75.1101 11 74.9098 10.9369 74.7418 10.8192L60.2582 0.680768C60.0902 0.56311 59.8899 0.5 59.6848 0.5H53.9857C53.679 0.5 53.3868 0.644153 53.1966 0.884732C44.8462 11.4477 39.114 16.4743 28.706 24.8346C28.5724 24.9419 28.4112 25.0148 28.2422 25.043L2.00229 29.4163C1.68671 29.4689 1.41535 29.6693 1.27227 29.9555L1 30.5" stroke="white"/>
</svg>
