<svg width="429" height="406" viewBox="0 0 429 406" fill="none" xmlns="http://www.w3.org/2000/svg">
<g id="Vector_Matamoros">
<path d="M269.958 28.0336L267.545 1.5H268.414C268.471 1.5 268.528 1.5049 268.585 1.51465L320.244 10.4558C320.412 10.4848 320.569 10.556 320.702 10.6628L364.225 45.7783C364.403 45.9217 364.625 46 364.853 46H381.617C382.122 46 382.547 45.6245 382.609 45.124L384.391 30.876C384.453 30.3755 384.878 30 385.383 30H392.167C392.383 30 392.594 29.9298 392.767 29.8L402.233 22.7C402.406 22.5702 402.617 22.5 402.833 22.5H426.964C427.53 22.5 427.983 22.9695 427.963 23.5353L426.5 65L422.525 96.7966C422.509 96.9308 422.465 97.0602 422.397 97.177L389.5 153.5L354.5 238.5L337.5 293L323.067 365.661C323.024 365.881 322.908 366.079 322.737 366.225L319.605 368.91C319.535 368.97 319.458 369.02 319.375 369.058L285 385C276.095 388.53 268.032 395.332 255.627 404.407C255.544 404.468 255.45 404.517 255.352 404.549L252.632 405.456C252.545 405.485 252.453 405.5 252.36 405.5C251.885 405.5 251.5 405.115 251.5 404.64V398.87C251.5 398.631 251.585 398.4 251.741 398.219L254.259 395.281C254.415 395.1 254.5 394.869 254.5 394.63V388.93C254.5 388.406 254.096 387.97 253.573 387.932L234.347 386.525C234.122 386.509 233.91 386.417 233.744 386.265L222.143 375.631C222.049 375.544 221.938 375.477 221.818 375.432L218.408 374.153C218.148 374.055 217.859 374.071 217.61 374.195L215.196 375.402C215.067 375.466 214.953 375.559 214.863 375.672L211.112 380.36C211.038 380.452 210.948 380.531 210.846 380.592L203.82 384.808C203.614 384.932 203.369 384.977 203.132 384.935L186.5 382L128.295 374.04C128.102 374.014 127.922 373.932 127.775 373.805L120.629 367.612C120.544 367.538 120.471 367.45 120.415 367.352L118.632 364.231C118.545 364.079 118.5 363.908 118.5 363.734V357.824C118.5 357.613 118.433 357.408 118.31 357.238L108.54 343.746C108.235 343.325 108.304 342.739 108.7 342.4L111.5 340C115.463 336.066 116.875 333.765 118.435 329.672C118.478 329.559 118.5 329.438 118.5 329.317V323.868C118.5 323.63 118.416 323.401 118.262 323.22L110.06 313.571C110.02 313.524 109.985 313.473 109.954 313.419L108.307 310.537C108.119 310.208 108.133 309.801 108.343 309.486L110 307L113.809 300.81C113.933 300.61 114.122 300.459 114.345 300.385L118.103 299.132C118.34 299.053 118.5 298.831 118.5 298.581C118.5 298.26 118.24 298 117.919 298H112.03C111.698 298 111.389 298.164 111.202 298.439L102.384 311.434C102.152 311.775 101.735 311.939 101.333 311.847L60.8881 302.589C60.6389 302.532 60.421 302.381 60.2792 302.169L44.9833 279.225C44.7063 278.809 44.1652 278.662 43.7157 278.88L29.3264 285.842C29.1155 285.944 28.8755 285.969 28.6483 285.912L15.4053 282.601C15.146 282.536 14.9234 282.371 14.7872 282.141L0.845568 258.584C0.636934 258.231 0.664391 257.787 0.91486 257.463L17.0659 236.562C17.3259 236.225 17.7701 236.09 18.1735 236.224L24.426 238.309C24.7789 238.426 25.1679 238.338 25.4358 238.08L37.8094 226.165C38.1954 225.793 38.8059 225.792 39.1935 226.162L49.2102 235.723C49.3962 235.901 49.6435 236 49.9007 236H58.5C58.8148 236 59.1111 235.852 59.3 235.6L61.7 232.4C61.8889 232.148 62.1852 232 62.5 232H70.5C71.0523 232 71.5 231.552 71.5 231V228.45C71.5 228.164 71.6225 227.891 71.8366 227.702L146.347 161.636C146.448 161.546 146.566 161.478 146.694 161.435L152.214 159.595C152.401 159.533 152.565 159.418 152.686 159.263L161.288 148.272C161.425 148.096 161.5 147.879 161.5 147.655V141.354C161.5 141.127 161.59 140.91 161.75 140.75C161.91 140.59 162.127 140.5 162.354 140.5H171.271C171.422 140.5 171.571 140.534 171.706 140.6L186.481 147.749C186.802 147.904 187.182 147.877 187.477 147.677L203.746 136.672C203.912 136.56 204.107 136.5 204.306 136.5H205.85C205.949 136.5 206.048 136.515 206.143 136.544L243.5 148L268.615 155.879C268.862 155.957 269.129 155.935 269.361 155.819L273.927 153.536C273.976 153.512 274.022 153.484 274.066 153.453L282.585 147.299C282.846 147.111 283 146.81 283 146.489V137.681C283 137.561 282.978 137.442 282.936 137.33L281.591 133.744C281.531 133.584 281.432 133.442 281.301 133.332L262.192 117.162C262.066 117.056 261.967 116.918 261.907 116.764C256.631 103.36 255.23 94.1764 255.984 74.8956C255.994 74.6445 256.099 74.4013 256.276 74.2237L265.207 65.2929C265.395 65.1054 265.5 64.851 265.5 64.5858V33.4142C265.5 33.149 265.605 32.8946 265.793 32.7071L269.669 28.8312C269.879 28.6213 269.984 28.3291 269.958 28.0336Z" fill="#1D7A92"/>
<path d="M267.5 1L269.958 28.0336C269.984 28.3291 269.879 28.6213 269.669 28.8312L265.793 32.7071C265.605 32.8946 265.5 33.149 265.5 33.4142V64.5858C265.5 64.851 265.395 65.1054 265.207 65.2929L256.276 74.2237C256.099 74.4013 255.994 74.6445 255.984 74.8956C255.23 94.1764 256.631 103.36 261.907 116.764C261.967 116.918 262.066 117.056 262.192 117.162L281.301 133.332C281.432 133.442 281.531 133.584 281.591 133.744L282.936 137.33C282.978 137.442 283 137.561 283 137.681V146.489C283 146.81 282.846 147.111 282.585 147.299L274.066 153.453C274.022 153.484 273.976 153.512 273.927 153.536L269.361 155.819C269.129 155.935 268.862 155.957 268.615 155.879L243.5 148L206.143 136.544C206.048 136.515 205.949 136.5 205.85 136.5H204.306C204.107 136.5 203.912 136.56 203.746 136.672L187.477 147.677C187.182 147.877 186.802 147.904 186.481 147.749L171.706 140.6C171.571 140.534 171.422 140.5 171.271 140.5H162.354C162.127 140.5 161.91 140.59 161.75 140.75V140.75C161.59 140.91 161.5 141.127 161.5 141.354V147.655C161.5 147.879 161.425 148.096 161.288 148.272L152.686 159.263C152.565 159.418 152.401 159.533 152.214 159.595L146.694 161.435C146.566 161.478 146.448 161.546 146.347 161.636L71.8366 227.702C71.6225 227.891 71.5 228.164 71.5 228.45V231C71.5 231.552 71.0523 232 70.5 232H62.5C62.1852 232 61.8889 232.148 61.7 232.4L59.3 235.6C59.1111 235.852 58.8148 236 58.5 236H49.9007C49.6435 236 49.3962 235.901 49.2102 235.723L39.1935 226.162C38.8059 225.792 38.1954 225.793 37.8094 226.165L25.4358 238.08C25.1679 238.338 24.7789 238.426 24.426 238.309L18.1735 236.224C17.7701 236.09 17.3259 236.225 17.0659 236.562L0.91486 257.463C0.664391 257.787 0.636934 258.231 0.845568 258.584L14.7872 282.14C14.9234 282.371 15.146 282.536 15.4053 282.601L28.6483 285.912C28.8755 285.969 29.1155 285.944 29.3264 285.842L43.7157 278.88C44.1652 278.662 44.7063 278.809 44.9833 279.225L60.2792 302.169C60.421 302.381 60.6389 302.532 60.8881 302.589L101.333 311.847C101.735 311.939 102.152 311.775 102.384 311.434L111.202 298.438C111.389 298.164 111.698 298 112.03 298H117.919C118.24 298 118.5 298.26 118.5 298.581V298.581C118.5 298.831 118.34 299.053 118.103 299.132L114.345 300.385C114.122 300.459 113.933 300.61 113.809 300.81L110 307L108.343 309.486C108.133 309.801 108.119 310.208 108.307 310.537L109.954 313.419C109.985 313.473 110.02 313.524 110.06 313.571L118.262 323.22C118.416 323.401 118.5 323.63 118.5 323.868V329.317C118.5 329.438 118.478 329.559 118.435 329.672C116.875 333.765 115.463 336.066 111.5 340L108.699 342.4C108.304 342.739 108.235 343.325 108.54 343.746L118.31 357.238C118.433 357.408 118.5 357.613 118.5 357.824V363.734C118.5 363.908 118.545 364.079 118.632 364.231L120.415 367.352C120.471 367.45 120.544 367.538 120.629 367.612L127.775 373.805C127.922 373.932 128.102 374.014 128.295 374.04L186.5 382L203.132 384.935C203.369 384.977 203.614 384.932 203.82 384.808L210.846 380.592C210.948 380.531 211.038 380.452 211.112 380.36L214.863 375.672C214.953 375.559 215.067 375.466 215.196 375.402L217.61 374.195C217.859 374.071 218.148 374.055 218.408 374.153L221.818 375.432C221.938 375.477 222.049 375.544 222.143 375.631L233.744 386.265C233.91 386.417 234.122 386.509 234.347 386.525L253.573 387.932C254.096 387.97 254.5 388.406 254.5 388.93V394.63C254.5 394.869 254.415 395.1 254.259 395.281L251.741 398.219C251.585 398.4 251.5 398.631 251.5 398.87V404.64C251.5 405.115 251.885 405.5 252.36 405.5V405.5C252.453 405.5 252.545 405.485 252.632 405.456L255.352 404.549C255.45 404.517 255.544 404.468 255.627 404.407C268.032 395.332 276.095 388.53 285 385L319.375 369.058C319.458 369.02 319.535 368.97 319.605 368.91L322.737 366.225C322.908 366.079 323.024 365.881 323.067 365.661L337.5 293L354.5 238.5L389.5 153.5L422.397 97.177C422.465 97.0602 422.509 96.9308 422.525 96.7966L426.5 65L427.963 23.5353C427.983 22.9695 427.53 22.5 426.964 22.5H402.833C402.617 22.5 402.406 22.5702 402.233 22.7L392.767 29.8C392.594 29.9298 392.383 30 392.167 30H385.383C384.878 30 384.453 30.3755 384.391 30.876L382.609 45.124C382.547 45.6245 382.122 46 381.617 46H364.853C364.625 46 364.403 45.9218 364.225 45.7783L320.702 10.6628C320.569 10.556 320.412 10.4848 320.244 10.4558L268.585 1.51465C268.528 1.5049 268.471 1.5 268.414 1.5H267.5" stroke="#1D7A92"/>
</g>
</svg>
