<svg width="123" height="139" viewBox="0 0 123 139" fill="none" xmlns="http://www.w3.org/2000/svg">
<path id="Vector_ZonaSur" d="M7.48135 31.0804L6.65932 12.5847C6.61436 11.5731 7.92872 11.1431 8.49039 11.9856L20.2297 29.5946C20.3986 29.8479 20.6828 30 20.9872 30C21.3056 30 21.6008 29.8337 21.7658 29.5615L31.5 13.5L32.9241 10.177C32.9743 10.0601 33.0462 9.95378 33.1362 9.86382L35.9224 7.07762C35.974 7.02603 36.0311 6.98024 36.0926 6.94107L41.5 3.5L44.4364 2.03178C44.4788 2.01062 44.5225 1.99249 44.5674 1.97753L47.107 1.13099C47.3587 1.04712 47.6333 1.06663 47.8705 1.18524L49.2889 1.89443C49.4277 1.96385 49.5808 2 49.7361 2H51.0858C51.351 2 51.6054 2.10536 51.7929 2.29289L52.8436 3.3436C52.9466 3.44662 53.0259 3.57091 53.0759 3.70777L64.3745 34.6563C64.4555 34.8782 64.6126 35.0643 64.8177 35.1816L67.8591 36.9195C67.9524 36.9728 68.0537 37.0107 68.1591 37.0318L72.7085 37.9417C72.8987 37.9797 73.0959 37.9616 73.276 37.8896L75.1872 37.1251C75.3901 37.0439 75.5609 36.8985 75.6733 36.7111L77 34.5L78.2 32.9C78.3889 32.6482 78.6852 32.5 79 32.5H79.0336C79.3292 32.5 79.6097 32.6308 79.7997 32.8574L92.164 47.5994C92.3745 47.8503 92.6935 47.9818 93.02 47.9559C95.0151 47.7979 98.5377 47.6344 100 48C101.194 48.2984 102.09 48.2443 102.607 48.1284C102.866 48.0704 103.141 48.0471 103.393 48.131L103.918 48.3061C104.275 48.4251 104.535 48.7343 104.591 49.1064L112 98.5L112.484 102.372C112.495 102.457 112.516 102.54 112.548 102.62L113.5 105L122.154 121.347C122.36 121.735 122.288 122.212 121.978 122.522L120.636 123.864C120.546 123.954 120.44 124.026 120.323 124.076L117 125.5L112.238 128.357C112.082 128.451 111.904 128.5 111.723 128.5H111.5C110.948 128.5 110.5 128.948 110.5 129.5V130.5V131.877C110.5 131.959 110.49 132.04 110.47 132.119L110.03 133.881C110.01 133.96 110 134.041 110 134.123V136.323C110 136.732 109.751 137.1 109.371 137.251L107.679 137.928C107.561 137.976 107.435 138 107.308 138H104H100H96.1623C96.0548 138 95.948 137.983 95.846 137.949L93.278 137.093C93.0965 137.032 92.9361 136.921 92.816 136.772L70.0503 108.562C70.0168 108.521 69.9867 108.477 69.9603 108.43L68.1502 105.263C68.0523 105.091 67.9058 104.953 67.7292 104.865L64 103L24.7372 82.6231C24.5818 82.5424 24.408 82.504 24.2331 82.5116L13.1399 82.9939C13.0471 82.998 12.9553 83.0149 12.8671 83.0443L11.893 83.369C11.6414 83.4529 11.3667 83.4334 11.1295 83.3148L10.6451 83.0726C10.549 83.0245 10.4613 82.9613 10.3853 82.8853L10 82.5L9.79289 82.2929C9.60536 82.1054 9.5 81.851 9.5 81.5858V72.8375C9.5 72.6186 9.42813 72.4057 9.29543 72.2315L1.55696 62.0748C1.51907 62.025 1.48593 61.9719 1.45797 61.9159L0.605573 60.2111C0.536145 60.0723 0.5 59.9192 0.5 59.7639V51V39.3942C0.5 39.1409 0.596118 38.897 0.768944 38.7118L7.21339 31.8071C7.39671 31.6107 7.49328 31.3488 7.48135 31.0804Z" fill="#DAFDB9" stroke="#DAFDB9"/>
</svg>
