<svg width="497" height="396" viewBox="0 0 497 396" fill="none" xmlns="http://www.w3.org/2000/svg">
<path d="M0.799805 104.65C7.7998 100.53 169.41 10.7801 169.41 10.7801C169.41 10.7801 313.2 89.3201 313.29 83.7001C313.38 78.0801 485.37 2.47006 482.6 0.650056C480.22 -0.939944 490.6 209.95 486.14 272.65C486.04 274.02 496.45 267.96 496.34 269.18C495.62 276.95 496.66 284.25 495.28 284.95C485.77 289.75 327 369.17 324.28 365.33C321.56 361.49 183.91 286.43 183.91 286.43C183.91 286.43 4.24981 397.44 4.24981 395.34C4.24981 393.24 0.799805 104.65 0.799805 104.65Z" fill="#68E1FD"/>
</svg>
<svg width="511" height="416" viewBox="0 0 511 416" fill="none" xmlns="http://www.w3.org/2000/svg">
<path d="M3.72971 415.29L3.67971 407.7C3.67971 404.48 0.259708 119.96 0.229708 117.09L0.199707 112.65L3.99971 110.43C10.9997 106.32 166.16 20.14 172.76 16.43L176.51 14.35L317.69 96.15L496.69 0.650024L497.2 12.7C497.51 20.79 504.37 201.44 501.36 273.95C501.949 273.827 502.548 273.764 503.15 273.76C504.235 273.756 505.31 273.979 506.305 274.412C507.3 274.846 508.194 275.482 508.93 276.28C509.655 277.07 510.208 278.003 510.552 279.019C510.897 280.035 511.025 281.112 510.93 282.18C510.66 285.11 510.67 288.02 510.68 290.59C510.68 296.2 510.68 301.5 505.74 304.01C501.05 306.38 460.74 326.55 420.52 346.08C339.63 385.33 334.71 385.34 331.77 385.34C330.702 385.358 329.641 385.162 328.65 384.764C327.659 384.365 326.758 383.772 326 383.02C318.69 377.61 241.36 334.88 191.18 307.48C179.59 314.64 142.91 337.28 106.34 359.68C80.4997 375.52 59.7597 388.13 44.7097 397.18C14.5897 415.29 14.0297 415.29 11.3497 415.29H3.72971Z" fill="url(#paint0_linear_14_533)"/>
<defs>
<linearGradient id="paint0_linear_14_533" x1="256.46" y1="61.19" x2="251.43" y2="802.82" gradientUnits="userSpaceOnUse">
<stop stop-color="#AAAAAA"/>
<stop offset="0.97"/>
</linearGradient>
</defs>
</svg>
<svg width="165" height="162" viewBox="0 0 165 162" fill="none" xmlns="http://www.w3.org/2000/svg">
<path opacity="0.13" d="M0.719727 74.64L164.01 0.640015V71.42L0.719727 161.99V74.64Z" fill="white"/>
</svg>
<svg width="527" height="436" viewBox="0 0 527 436" fill="none" xmlns="http://www.w3.org/2000/svg">
<path d="M522.46 283.47C520.967 281.833 519.134 280.543 517.09 279.69C519.46 202.84 512.99 32.55 512.69 24.69L511.76 0.540039L490.44 11.92L353.84 84.92L325.79 99.92L316.32 94.43L282.5 74.78L243.68 52.29L191.97 22.29L184.54 17.98L177.04 22.15C170.43 25.82 15.2398 112.03 8.12979 116.15L0.529785 120.65L0.639786 129.45C0.639786 132.32 4.05978 415.97 4.08978 420.03C4.11092 424.04 5.71819 427.88 8.56054 430.709C11.4029 433.538 15.2494 435.127 19.2598 435.13C23.9298 435.13 26.8498 433.44 35.5198 428.41C40.4598 425.54 47.5198 421.35 56.5198 415.94C71.5898 406.88 92.3398 394.25 118.21 378.41C151.48 358.03 184.84 337.41 199.33 328.5C248.04 355.12 319.75 394.76 329.11 401.17C332.009 403.778 335.78 405.206 339.68 405.17C344.62 405.17 349.28 405.17 431.68 365.17C471.93 345.63 512.31 325.42 517.02 323.04C520.02 321.52 525.22 317.62 526.02 308.69C526.17 306.88 526.16 305.01 526.16 302.85C526.16 300.45 526.16 297.72 526.38 295.16C526.573 293.046 526.324 290.915 525.649 288.903C524.975 286.89 523.888 285.04 522.46 283.47ZM510.25 309.54C500.97 314.22 349.39 390.06 339.68 390.06C339.599 390.071 339.517 390.064 339.439 390.04C339.362 390.016 339.29 389.975 339.23 389.92C336.49 386.08 198.86 311.02 198.86 311.02C198.86 311.02 22.5798 420.02 19.2598 420.02C19.2598 417.92 15.8098 129.32 15.8098 129.32C22.8098 125.2 184.42 35.45 184.42 35.45L233.61 63.95L266.42 82.95L317.31 112.44L325.53 117.2L354.18 101.9L497.61 25.3C497.61 25.3 505.61 234.6 501.15 297.3C501.15 297.44 501.24 297.5 501.43 297.5C502.91 297.5 509.79 293.67 511.13 293.67C511.28 293.67 511.36 293.72 511.35 293.83C510.59 301.54 511.63 308.84 510.25 309.54Z" fill="white"/>
</svg>
<svg width="136" height="194" viewBox="0 0 136 194" fill="none" xmlns="http://www.w3.org/2000/svg">
<path d="M134.84 32.8801L106.79 47.8801L97.3197 42.3901C99.4934 48.2937 99.794 54.724 98.1806 60.8047C96.5672 66.8854 93.1182 72.3207 88.3036 76.3701C83.4891 80.4195 77.543 82.886 71.2758 83.4335C65.0085 83.981 58.7249 82.5828 53.2812 79.4296C47.8374 76.2763 43.4982 71.5212 40.8549 65.8124C38.2116 60.1035 37.3927 53.7185 38.5099 47.5274C39.627 41.3363 42.6259 35.6402 47.0978 31.2153C51.5697 26.7903 57.2971 23.8518 63.4997 22.8L24.6797 0.310059C20.851 3.7591 17.456 7.66109 14.5697 11.9301C11.2151 16.9096 8.44359 22.258 6.3097 27.8701C-3.8503 54.1801 -0.830299 83.7801 13.5897 108.03L54.3797 193.4C54.3797 193.4 129.2 112.02 135.14 49.8701C135.724 44.2153 135.623 38.5107 134.84 32.8801Z" fill="url(#paint0_linear_14_537)"/>
<defs>
<linearGradient id="paint0_linear_14_537" x1="78.8897" y1="-1.91994" x2="15.6997" y2="302.08" gradientUnits="userSpaceOnUse">
<stop stop-opacity="0"/>
<stop offset="0.97"/>
</linearGradient>
</defs>
</svg>
<svg width="138" height="218" viewBox="0 0 138 218" fill="none" xmlns="http://www.w3.org/2000/svg">
<path d="M133.85 42.9101C125.94 19.8501 108.51 -0.579923 71.4497 0.580077C33.6797 1.76008 15.4497 22.5801 6.78968 44.9101C-3.37032 71.2201 -0.350319 100.83 14.0697 125.07L68.3797 217.38L117.73 130.65C129.75 105.92 144.14 72.8601 133.85 42.9101ZM69.0897 100.58C63.0391 100.58 57.1245 98.7858 52.0938 95.424C47.063 92.0623 43.1422 87.2842 40.8273 81.6941C38.5123 76.1039 37.9071 69.9527 39.0882 64.0186C40.2693 58.0844 43.1838 52.6338 47.4628 48.3561C51.7419 44.0785 57.1935 41.1658 63.128 39.9866C69.0625 38.8074 75.2135 39.4146 80.8029 41.7315C86.3923 44.0483 91.1691 47.9706 94.5292 53.0025C97.8893 58.0343 99.6817 63.9495 99.6797 70.0001C99.6797 74.0167 98.8884 77.9941 97.351 81.7048C95.8135 85.4156 93.5601 88.7872 90.7195 91.6269C87.8788 94.4667 84.5065 96.719 80.7952 98.2552C77.0839 99.7914 73.1064 100.581 69.0897 100.58Z" fill="#BC532A"/>
</svg>
<svg width="88" height="218" viewBox="0 0 88 218" fill="none" xmlns="http://www.w3.org/2000/svg">
<path opacity="0.2" d="M33.1998 44.91C43.2698 25.8 56.5498 5.91001 87.1998 1.50001C82.0177 0.694176 76.7705 0.386107 71.5297 0.58001C33.7597 1.76001 15.5298 22.58 6.86976 44.91C-3.29024 71.22 -0.270241 100.83 14.1498 125.07L68.4598 217.38C68.4598 217.38 3.82976 100.58 33.1998 44.91Z" fill="white"/>
</svg>
<svg width="45" height="62" viewBox="0 0 45 62" fill="none" xmlns="http://www.w3.org/2000/svg">
<path opacity="0.13" d="M26.87 31C26.8699 25.2238 28.5035 19.5652 31.5824 14.6779C34.6613 9.79064 39.0598 5.8739 44.27 3.38003C39.6072 1.15812 34.4577 0.153076 29.3016 0.458596C24.1455 0.764117 19.1507 2.37025 14.7829 5.12727C10.4151 7.88428 6.81652 11.7024 4.32269 16.2256C1.82886 20.7488 0.520996 25.8299 0.520996 30.995C0.520996 36.1602 1.82886 41.2412 4.32269 45.7645C6.81652 50.2877 10.4151 54.1058 14.7829 56.8628C19.1507 59.6198 24.1455 61.226 29.3016 61.5315C34.4577 61.837 39.6072 60.832 44.27 58.61C39.0599 56.1188 34.6611 52.2041 31.582 47.3183C28.503 42.4325 26.8694 36.7751 26.87 31Z" fill="white"/>
</svg>
<svg width="128" height="240" viewBox="0 0 128 240" fill="none" xmlns="http://www.w3.org/2000/svg">
<path d="M125.5 0.469971C124.837 0.469971 124.201 0.733361 123.732 1.2022C123.263 1.67104 123 2.30693 123 2.96997V108.21C107.67 114.72 8.87994 156.82 0.649939 165.16C0.256714 165.643 0.0578269 166.255 0.0921918 166.877C0.126557 167.498 0.391706 168.085 0.835745 168.521C1.27978 168.958 1.87074 169.213 2.49297 169.237C3.1152 169.261 3.7239 169.051 4.19994 168.65C9.91994 162.85 77.2799 133.04 122.99 113.65V236.95C122.99 237.613 123.253 238.249 123.722 238.718C124.191 239.187 124.827 239.45 125.49 239.45C126.153 239.45 126.789 239.187 127.258 238.718C127.727 238.249 127.99 237.613 127.99 236.95V2.94997C127.987 2.29132 127.724 1.66054 127.257 1.19574C126.79 0.730935 126.159 0.469965 125.5 0.469971Z" fill="url(#paint0_linear_14_546)"/>
<defs>
<linearGradient id="paint0_linear_14_546" x1="69.2999" y1="361.74" x2="61.4199" y2="-47.09" gradientUnits="userSpaceOnUse">
<stop stop-opacity="0"/>
<stop offset="0.83" stop-opacity="0.47"/>
<stop offset="0.97"/>
</linearGradient>
</defs>
</svg>
<svg width="200" height="208" viewBox="0 0 200 208" fill="none" xmlns="http://www.w3.org/2000/svg">
<path d="M199.35 53.71C199.031 53.1273 198.494 52.6948 197.856 52.5074C197.219 52.3199 196.534 52.3928 195.95 52.71L110.56 99.52V2.58997C110.56 1.92692 110.296 1.29103 109.828 0.822189C109.359 0.353348 108.723 0.0899658 108.06 0.0899658C107.397 0.0899658 106.761 0.353348 106.292 0.822189C105.823 1.29103 105.56 1.92692 105.56 2.58997V99.4C97.3798 94.61 77.0698 82.75 56.8998 71.07C41.6398 62.24 29.4598 55.25 20.6798 50.29C15.4598 47.34 11.3998 45.09 8.59982 43.58C3.67982 40.93 2.01982 40.04 0.599817 42.09C0.279817 42.55 -0.590181 44.21 1.53982 45.89C2.02439 46.2652 2.62789 46.4533 3.23983 46.42C12.5698 51.05 67.8598 83.12 105.54 105.19V204.92C105.54 205.583 105.803 206.219 106.272 206.688C106.741 207.157 107.377 207.42 108.04 207.42C108.703 207.42 109.339 207.157 109.808 206.688C110.276 206.219 110.54 205.583 110.54 204.92V105.24L198.34 57.11C198.924 56.7926 199.359 56.2564 199.548 55.6189C199.738 54.9814 199.666 54.2949 199.35 53.71Z" fill="url(#paint0_linear_14_547)"/>
<defs>
<linearGradient id="paint0_linear_14_547" x1="102.84" y1="-66.6" x2="89.3198" y2="468.92" gradientUnits="userSpaceOnUse">
<stop stop-opacity="0"/>
<stop offset="0.9" stop-opacity="0.83"/>
<stop offset="0.97"/>
</linearGradient>
</defs>
</svg>
<svg width="168" height="130" viewBox="0 0 168 130" fill="none" xmlns="http://www.w3.org/2000/svg">
<path opacity="0.24" d="M0.77002 93.28L167.39 0.640015L167.01 41.61L1.20002 129.09L0.77002 93.28Z" fill="white"/>
</svg>
<svg width="151" height="165" viewBox="0 0 151 165" fill="none" xmlns="http://www.w3.org/2000/svg">
<path opacity="0.13" d="M0.00976562 0.640015L150.56 78.98V164.92L7.41975 88.15L0.00976562 0.640015Z" fill="white"/>
</svg>
<svg width="222" height="197" viewBox="0 0 222 197" fill="none" xmlns="http://www.w3.org/2000/svg">
<path d="M93.6296 37.8299C99.8673 34.5648 105.781 30.7141 111.29 26.3299C141.7 2.64991 187.66 -2.20009 200.1 9.64991C268.77 75.2099 133.29 190.83 67.3696 194.43C32.5196 196.33 11.1296 132.88 2.61963 101.06" stroke="white" stroke-width="5" stroke-miterlimit="10" stroke-dasharray="18.4 18.4"/>
</svg>
<svg width="12" height="19" viewBox="0 0 12 19" fill="none" xmlns="http://www.w3.org/2000/svg">
<path d="M9.34982 18.16C8.02982 12.69 7.34982 9.38004 7.34982 9.38004L2.81982 1.65002" stroke="white" stroke-width="5" stroke-miterlimit="10"/>
</svg>
<svg width="226" height="206" viewBox="0 0 226 206" fill="none" xmlns="http://www.w3.org/2000/svg">
<path d="M222.87 85.42L213.94 70.23C191.49 32.08 150 47.59 150 47.59C150 47.59 106.87 78.32 99.2598 134.52C91.6498 190.72 37.0298 211.82 21.9298 200.02C6.82984 188.22 -18.1502 56.35 35.0698 17.96C70.0198 -7.27 99.8798 5.02001 116.25 16.42" stroke="white" stroke-width="5" stroke-miterlimit="10" stroke-dasharray="17.64 17.64"/>
</svg>
<svg width="11" height="11" viewBox="0 0 11 11" fill="none" xmlns="http://www.w3.org/2000/svg">
<path d="M2.19971 2.82007C4.49068 4.75998 6.64574 6.85491 8.6497 9.09007" stroke="white" stroke-width="5" stroke-miterlimit="10"/>
</svg>
<svg width="543" height="476" viewBox="0 0 543 476" fill="none" xmlns="http://www.w3.org/2000/svg">
<path opacity="0.24" d="M536.77 291.1C535.851 290.093 534.847 289.166 533.77 288.33C535.77 209.19 529.49 44.83 529.22 37.72L527.77 0L333.99 103.49L192.66 21.65L180.94 28.16C164.38 37.36 18.94 118.16 11.87 122.29L0 129.18L0.2 144.5C0.77 192.1 3.6 471.5 3.63 475.23C3.63 475.23 59.92 442.01 68.94 436.59C83.94 427.54 104.76 414.9 130.69 399.03C161.28 380.29 192.3 361.16 207.63 351.7C263.54 382.28 322.63 415.14 331.94 421.28C336.342 425.026 341.94 427.073 347.72 427.05C354.72 427.05 359.27 427.05 443.48 386.17C483.88 366.57 524.24 346.36 528.94 343.99C536.78 339.99 541.73 332.29 542.53 322.76C542.71 320.58 542.7 318.45 542.7 316.19C542.7 313.93 542.7 311.47 542.88 309.3C543.178 306.009 542.789 302.691 541.737 299.558C540.685 296.425 538.994 293.545 536.77 291.1ZM349.2 394.27C342.47 389.89 325.55 380.11 280.13 354.95C245.76 335.95 211.27 317.1 210.93 316.95L206.59 314.58L202.39 317.18C146.33 351.83 65.49 401.47 35.58 419.08C34.97 366.03 32.76 181.56 32.36 147.56C56.36 134.1 169.01 71.5 192.36 58.56L333.36 140.28L497.6 52.54C499.27 99.92 504.41 257.71 500.66 310.01C500.521 312.026 501.089 314.028 502.266 315.67C503.443 317.313 505.156 318.494 507.11 319.01C462.2 341.52 368.12 387.7 349.2 394.27Z" fill="black"/>
</svg>
