<svg width="497" height="396" viewBox="0 0 497 396" fill="none" xmlns="http://www.w3.org/2000/svg">
<path d="M0.799805 104.65C7.7998 100.53 169.41 10.7801 169.41 10.7801C169.41 10.7801 313.2 89.3201 313.29 83.7001C313.38 78.0801 485.37 2.47006 482.6 0.650056C480.22 -0.939944 490.6 209.95 486.14 272.65C486.04 274.02 496.45 267.96 496.34 269.18C495.62 276.95 496.66 284.25 495.28 284.95C485.77 289.75 327 369.17 324.28 365.33C321.56 361.49 183.91 286.43 183.91 286.43C183.91 286.43 4.24981 397.44 4.24981 395.34C4.24981 393.24 0.799805 104.65 0.799805 104.65Z" fill="#68E1FD"/>
</svg>
