<svg width="136" height="194" viewBox="0 0 136 194" fill="none" xmlns="http://www.w3.org/2000/svg">
<path d="M134.84 32.8801L106.79 47.8801L97.3197 42.3901C99.4934 48.2937 99.794 54.724 98.1806 60.8047C96.5672 66.8854 93.1182 72.3207 88.3036 76.3701C83.4891 80.4195 77.543 82.886 71.2758 83.4335C65.0085 83.981 58.7249 82.5828 53.2812 79.4296C47.8374 76.2763 43.4982 71.5212 40.8549 65.8124C38.2116 60.1035 37.3927 53.7185 38.5099 47.5274C39.627 41.3363 42.6259 35.6402 47.0978 31.2153C51.5697 26.7903 57.2971 23.8518 63.4997 22.8L24.6797 0.310059C20.851 3.7591 17.456 7.66109 14.5697 11.9301C11.2151 16.9096 8.44359 22.258 6.3097 27.8701C-3.8503 54.1801 -0.830299 83.7801 13.5897 108.03L54.3797 193.4C54.3797 193.4 129.2 112.02 135.14 49.8701C135.724 44.2153 135.623 38.5107 134.84 32.8801Z" fill="url(#paint0_linear_14_537)"/>
<defs>
<linearGradient id="paint0_linear_14_537" x1="78.8897" y1="-1.91994" x2="15.6997" y2="302.08" gradientUnits="userSpaceOnUse">
<stop stop-opacity="0"/>
<stop offset="0.97"/>
</linearGradient>
</defs>
</svg>
