<svg width="200" height="208" viewBox="0 0 200 208" fill="none" xmlns="http://www.w3.org/2000/svg">
<path d="M199.35 53.71C199.031 53.1273 198.494 52.6948 197.856 52.5074C197.219 52.3199 196.534 52.3928 195.95 52.71L110.56 99.52V2.58997C110.56 1.92692 110.296 1.29103 109.828 0.822189C109.359 0.353348 108.723 0.0899658 108.06 0.0899658C107.397 0.0899658 106.761 0.353348 106.292 0.822189C105.823 1.29103 105.56 1.92692 105.56 2.58997V99.4C97.3798 94.61 77.0698 82.75 56.8998 71.07C41.6398 62.24 29.4598 55.25 20.6798 50.29C15.4598 47.34 11.3998 45.09 8.59982 43.58C3.67982 40.93 2.01982 40.04 0.599817 42.09C0.279817 42.55 -0.590181 44.21 1.53982 45.89C2.02439 46.2652 2.62789 46.4533 3.23983 46.42C12.5698 51.05 67.8598 83.12 105.54 105.19V204.92C105.54 205.583 105.803 206.219 106.272 206.688C106.741 207.157 107.377 207.42 108.04 207.42C108.703 207.42 109.339 207.157 109.808 206.688C110.276 206.219 110.54 205.583 110.54 204.92V105.24L198.34 57.11C198.924 56.7926 199.359 56.2564 199.548 55.6189C199.738 54.9814 199.666 54.2949 199.35 53.71Z" fill="url(#paint0_linear_14_547)"/>
<defs>
<linearGradient id="paint0_linear_14_547" x1="102.84" y1="-66.6" x2="89.3198" y2="468.92" gradientUnits="userSpaceOnUse">
<stop stop-opacity="0"/>
<stop offset="0.9" stop-opacity="0.83"/>
<stop offset="0.97"/>
</linearGradient>
</defs>
</svg>
