<svg width="527" height="436" viewBox="0 0 527 436" fill="none" xmlns="http://www.w3.org/2000/svg">
<path d="M522.46 283.47C520.967 281.833 519.134 280.543 517.09 279.69C519.46 202.84 512.99 32.55 512.69 24.69L511.76 0.540039L490.44 11.92L353.84 84.92L325.79 99.92L316.32 94.43L282.5 74.78L243.68 52.29L191.97 22.29L184.54 17.98L177.04 22.15C170.43 25.82 15.2398 112.03 8.12979 116.15L0.529785 120.65L0.639786 129.45C0.639786 132.32 4.05978 415.97 4.08978 420.03C4.11092 424.04 5.71819 427.88 8.56054 430.709C11.4029 433.538 15.2494 435.127 19.2598 435.13C23.9298 435.13 26.8498 433.44 35.5198 428.41C40.4598 425.54 47.5198 421.35 56.5198 415.94C71.5898 406.88 92.3398 394.25 118.21 378.41C151.48 358.03 184.84 337.41 199.33 328.5C248.04 355.12 319.75 394.76 329.11 401.17C332.009 403.778 335.78 405.206 339.68 405.17C344.62 405.17 349.28 405.17 431.68 365.17C471.93 345.63 512.31 325.42 517.02 323.04C520.02 321.52 525.22 317.62 526.02 308.69C526.17 306.88 526.16 305.01 526.16 302.85C526.16 300.45 526.16 297.72 526.38 295.16C526.573 293.046 526.324 290.915 525.649 288.903C524.975 286.89 523.888 285.04 522.46 283.47ZM510.25 309.54C500.97 314.22 349.39 390.06 339.68 390.06C339.599 390.071 339.517 390.064 339.439 390.04C339.362 390.016 339.29 389.975 339.23 389.92C336.49 386.08 198.86 311.02 198.86 311.02C198.86 311.02 22.5798 420.02 19.2598 420.02C19.2598 417.92 15.8098 129.32 15.8098 129.32C22.8098 125.2 184.42 35.45 184.42 35.45L233.61 63.95L266.42 82.95L317.31 112.44L325.53 117.2L354.18 101.9L497.61 25.3C497.61 25.3 505.61 234.6 501.15 297.3C501.15 297.44 501.24 297.5 501.43 297.5C502.91 297.5 509.79 293.67 511.13 293.67C511.28 293.67 511.36 293.72 511.35 293.83C510.59 301.54 511.63 308.84 510.25 309.54Z" fill="white"/>
</svg>
