<svg width="138" height="218" viewBox="0 0 138 218" fill="none" xmlns="http://www.w3.org/2000/svg">
<path d="M133.85 42.9101C125.94 19.8501 108.51 -0.579923 71.4497 0.580077C33.6797 1.76008 15.4497 22.5801 6.78968 44.9101C-3.37032 71.2201 -0.350319 100.83 14.0697 125.07L68.3797 217.38L117.73 130.65C129.75 105.92 144.14 72.8601 133.85 42.9101ZM69.0897 100.58C63.0391 100.58 57.1245 98.7858 52.0938 95.424C47.063 92.0623 43.1422 87.2842 40.8273 81.6941C38.5123 76.1039 37.9071 69.9527 39.0882 64.0186C40.2693 58.0844 43.1838 52.6338 47.4628 48.3561C51.7419 44.0785 57.1935 41.1658 63.128 39.9866C69.0625 38.8074 75.2135 39.4146 80.8029 41.7315C86.3923 44.0483 91.1691 47.9706 94.5292 53.0025C97.8893 58.0343 99.6817 63.9495 99.6797 70.0001C99.6797 74.0167 98.8884 77.9941 97.351 81.7048C95.8135 85.4156 93.5601 88.7872 90.7195 91.6269C87.8788 94.4667 84.5065 96.719 80.7952 98.2552C77.0839 99.7914 73.1064 100.581 69.0897 100.58Z" fill="#BC532A"/>
</svg>
