<svg width="128" height="240" viewBox="0 0 128 240" fill="none" xmlns="http://www.w3.org/2000/svg">
<path d="M125.5 0.469971C124.837 0.469971 124.201 0.733361 123.732 1.2022C123.263 1.67104 123 2.30693 123 2.96997V108.21C107.67 114.72 8.87994 156.82 0.649939 165.16C0.256714 165.643 0.0578269 166.255 0.0921918 166.877C0.126557 167.498 0.391706 168.085 0.835745 168.521C1.27978 168.958 1.87074 169.213 2.49297 169.237C3.1152 169.261 3.7239 169.051 4.19994 168.65C9.91994 162.85 77.2799 133.04 122.99 113.65V236.95C122.99 237.613 123.253 238.249 123.722 238.718C124.191 239.187 124.827 239.45 125.49 239.45C126.153 239.45 126.789 239.187 127.258 238.718C127.727 238.249 127.99 237.613 127.99 236.95V2.94997C127.987 2.29132 127.724 1.66054 127.257 1.19574C126.79 0.730935 126.159 0.469965 125.5 0.469971Z" fill="url(#paint0_linear_14_546)"/>
<defs>
<linearGradient id="paint0_linear_14_546" x1="69.2999" y1="361.74" x2="61.4199" y2="-47.09" gradientUnits="userSpaceOnUse">
<stop stop-opacity="0"/>
<stop offset="0.83" stop-opacity="0.47"/>
<stop offset="0.97"/>
</linearGradient>
</defs>
</svg>
