<svg width="511" height="416" viewBox="0 0 511 416" fill="none" xmlns="http://www.w3.org/2000/svg">
<path d="M3.72971 415.29L3.67971 407.7C3.67971 404.48 0.259708 119.96 0.229708 117.09L0.199707 112.65L3.99971 110.43C10.9997 106.32 166.16 20.14 172.76 16.43L176.51 14.35L317.69 96.15L496.69 0.650024L497.2 12.7C497.51 20.79 504.37 201.44 501.36 273.95C501.949 273.827 502.548 273.764 503.15 273.76C504.235 273.756 505.31 273.979 506.305 274.412C507.3 274.846 508.194 275.482 508.93 276.28C509.655 277.07 510.208 278.003 510.552 279.019C510.897 280.035 511.025 281.112 510.93 282.18C510.66 285.11 510.67 288.02 510.68 290.59C510.68 296.2 510.68 301.5 505.74 304.01C501.05 306.38 460.74 326.55 420.52 346.08C339.63 385.33 334.71 385.34 331.77 385.34C330.702 385.358 329.641 385.162 328.65 384.764C327.659 384.365 326.758 383.772 326 383.02C318.69 377.61 241.36 334.88 191.18 307.48C179.59 314.64 142.91 337.28 106.34 359.68C80.4997 375.52 59.7597 388.13 44.7097 397.18C14.5897 415.29 14.0297 415.29 11.3497 415.29H3.72971Z" fill="url(#paint0_linear_14_533)"/>
<defs>
<linearGradient id="paint0_linear_14_533" x1="256.46" y1="61.19" x2="251.43" y2="802.82" gradientUnits="userSpaceOnUse">
<stop stop-color="#AAAAAA"/>
<stop offset="0.97"/>
</linearGradient>
</defs>
</svg>
