<svg width="543" height="476" viewBox="0 0 543 476" fill="none" xmlns="http://www.w3.org/2000/svg">
<path opacity="0.24" d="M536.77 291.1C535.851 290.093 534.847 289.166 533.77 288.33C535.77 209.19 529.49 44.83 529.22 37.72L527.77 0L333.99 103.49L192.66 21.65L180.94 28.16C164.38 37.36 18.94 118.16 11.87 122.29L0 129.18L0.2 144.5C0.77 192.1 3.6 471.5 3.63 475.23C3.63 475.23 59.92 442.01 68.94 436.59C83.94 427.54 104.76 414.9 130.69 399.03C161.28 380.29 192.3 361.16 207.63 351.7C263.54 382.28 322.63 415.14 331.94 421.28C336.342 425.026 341.94 427.073 347.72 427.05C354.72 427.05 359.27 427.05 443.48 386.17C483.88 366.57 524.24 346.36 528.94 343.99C536.78 339.99 541.73 332.29 542.53 322.76C542.71 320.58 542.7 318.45 542.7 316.19C542.7 313.93 542.7 311.47 542.88 309.3C543.178 306.009 542.789 302.691 541.737 299.558C540.685 296.425 538.994 293.545 536.77 291.1ZM349.2 394.27C342.47 389.89 325.55 380.11 280.13 354.95C245.76 335.95 211.27 317.1 210.93 316.95L206.59 314.58L202.39 317.18C146.33 351.83 65.49 401.47 35.58 419.08C34.97 366.03 32.76 181.56 32.36 147.56C56.36 134.1 169.01 71.5 192.36 58.56L333.36 140.28L497.6 52.54C499.27 99.92 504.41 257.71 500.66 310.01C500.521 312.026 501.089 314.028 502.266 315.67C503.443 317.313 505.156 318.494 507.11 319.01C462.2 341.52 368.12 387.7 349.2 394.27Z" fill="black"/>
</svg>
