<svg width="45" height="62" viewBox="0 0 45 62" fill="none" xmlns="http://www.w3.org/2000/svg">
<path opacity="0.13" d="M26.87 31C26.8699 25.2238 28.5035 19.5652 31.5824 14.6779C34.6613 9.79064 39.0598 5.8739 44.27 3.38003C39.6072 1.15812 34.4577 0.153076 29.3016 0.458596C24.1455 0.764117 19.1507 2.37025 14.7829 5.12727C10.4151 7.88428 6.81652 11.7024 4.32269 16.2256C1.82886 20.7488 0.520996 25.8299 0.520996 30.995C0.520996 36.1602 1.82886 41.2412 4.32269 45.7645C6.81652 50.2877 10.4151 54.1058 14.7829 56.8628C19.1507 59.6198 24.1455 61.226 29.3016 61.5315C34.4577 61.837 39.6072 60.832 44.27 58.61C39.0599 56.1188 34.6611 52.2041 31.582 47.3183C28.503 42.4325 26.8694 36.7751 26.87 31Z" fill="white"/>
</svg>
